<?xml version="1.0" encoding="UTF-8"?>
<svg version="1.1" viewBox="0 0 1008 1342" width="1008" height="1342" xmlns="http://www.w3.org/2000/svg">
<path transform="translate(511,18)" d="m0 0h8l6 3 5 5 1 3v12l-5 8-2 4 12 12 13 17 11 19 8 21 3 13 1 9v19l-3 17-6 15-9 14-11 11-11 8 1 6 11 16 7 10 14 17 12 14 9 11 11 11 11 9 17 13 16 12 38 29 10 8 13 12 5 5 8 7h2l1-2v-8l-5-8 2-4 11-1 5-3 8-8h5l3 3 4 10 12 7 2 4-4 6-8 8-2 11-1 1-7-1-7-3-8 1 2 4 12 14 12 16 10 15 12 21 15 31 15 33 11 28 8 23 10 26 2 2 5-4 15-2 7-6 8-10 6-5 3-1 5 3 11 20 7 3 16 4 1 5-3 7-15 14-1 3-1 22-2 2-7-1-11-8-7-1-22 8h-2l3 17 4 24 4 33 4 48 2 39v58l-3 35-3 18-7 30 10 3 11 7 4 3 6 1 5-1h9l2 2-1 7-4 13 2 7 8 13 1 7-2 3-5 1-12-1h-13l-9 10-5 5-5-2-3-8-3-11-9-7-10-4-2 5-13 19-10 13-10 11-7 8-9 10-12 12-8 7-15 12-18 12-18 11-22 11-15 6-1 2 5 14v13l-1 3v7l11 13 5 10-2 10-4 5-14 9-18 6-18 3-31 3-20 1h-138l-33-2-26-3-18-4-15-6-11-8-4-6-1-9 3-6 11-13 2-4-1-8v-14l4-11 2-5-9-3-12-5-17-8-23-14-14-10-18-14-16-15-3-1-1 9 2 3-1 4-7 2-1 4 10-1 6-3h6l5 12 6 7-2 4-8 6-4 8h-4l-6-5-13-1-1-1 1-7 3-5-2-13-4-1-3-5-6-3 1-8 5-9h17l-24-28-13-17-12-19-11-21-10-24-7-25-4-21-3-30-1-24v-26l1-38-8 6-2 8-1 7-2 2-4-1-7-5h-7l-9 2h-6l-2-4 3-11v-8l-4-9v-3l13-3 11-9 3-2 4 1 5 8 4 6 10 4 5-63 4-30 7-36 11-44 8-24 9-23 13-35 16-36 1-5-10-1-9 6-10 8-3 2h-6l-3-4-1-26-5-5-12-10v-6l5-3 12-5 12-24 3-3 7 1 14 14 4 2h22l6 4 8-10 10-14 13-16 12-13 9-10 15-15 8-7 9-8 16-12 13-10 12-9 17-13 12-9 10-8 12-11 11-12 9-11 7-8 11-14 8-11 9-13 2-4v-6l-11-8-11-11-8-13-5-12-3-12-1-7v-22l4-20 8-21 9-16 8-11 9-10 7-8 3-4-5-6-3-10 1-7 4-7 5-3zm-297 446-5 8-5 10-9 6 1 4 7 6 2 4 2 15 4 1 11-8h12l3-2v-12l8-14-1-5-13-1-7-4-8-8zm665 158-8 7-6 7-11 3 2 6 4 10-1 16 8-1 6-2 8 1 6 3 4-1 1-11 3-5 11-10-3-4-11-4-6-8-4-6zm-42 15 1 7 6 21 1 2h2l3-8-1-6-11-16zm-604 469-1 1v8l5 2 4-3 1-7z" fill="#E0C666"/>
<path transform="translate(496,406)" d="m0 0h5l10 9 2 3 4-2 10-10h6l14 7 10 9 8 7 8 9 5 5 10 13 9 13 11 17 10 17 3 4 16 32 10 21 11 26 6 16 7 19 12 34 4 15 5 18 5 22 4 24 3 17 3 21 2 18 1 18v24l-2 19-5 20-4 9-5 10-6 7-11 9-5 5-4 1-1 3-28 21-11 7-16 10-10 6-19 9-8 4-16 6-16 5h-10l-6-2h-24l-7 2h-9l-17-5-12-5-19-8-15-8-20-12-4-2v-2l-5-2-6-4-32-24-3-3-11-9-4-5-5-4-5-14-4-8-3-12-2-14-1-16v-14l1-28 3-17 2-19 2-7 1-11 2-9 4-17 5-21 3-10 7-25 4-9 3-14 5-12 4-12 11-25 6-15 6-13 9-19 10-19 6-12h2l2-8 3-4h2l2-5 14-21 16-20 7-8 2-1 1-3 5-3 11-10 7-5z" fill="#F999C6"/>
<path transform="translate(196,778)" d="m0 0 4 4 6 12 5 8 7 14 3 5-2 6-8 14-7 21-3 12-1 11-2 13-1 14v24l2 22 3 22 7 25 7 19 6 9 3 6 3 5 4 4v2l4 2 8 7 12 5 6 1 12-1 9-4 8-7 8-9 3-5h2l3 16 3 13 4 11 2 6 4 9 7 13 8 11 14 15 4 2 5 4 12 6 7 2 13 1 12-1 11-5 6-4 8-7 7-9 5-11 5-14 2-13 4 1 8 12 10 11 15 10 15 5 5 1h23l15-4 8-4 10-7 3-1v-2l7-6 12-16 2 1 3 16 5 13 2 3v3h2l3 6 8 9 2 1v2l16 8 8 2h14l7-1 12-5 5-1v-2l9-5 5-5 4-5 5-4 11-17 9-17 3-9 4-13 2-7 2-16 2-3 2 5h2l8 10 1 3 5 2v2l6 2 7 2 11 1 9-2 12-6 5-6 5-5 9-14 4-8h2l1-7 5-12 4-15 6-31 1-17v-38l-3-24-5-22-5-16-9-18v-6l10-18h2l1-6 9-16h2l2 5 2 12 6 27 3 20 2 26v36l-1 16-4 25-6 27-5 14-8 23-7 15-6 12-6 10-4 5-4 7-10 14-8 10-1 2h-2v2l-16 16h-2v2h-2l-2 4-4 2-1 3-3 1-5 5-16 12-7 5-6 2v2l-10 5-4 3-5 2h-3v2l-7 3-8 4-19 7-16 5-22 5-18 3-22 2-26 1-31-1-53 1-36-3-25-4-21-5-24-8-11-5-8-4-6-2-17-10-5-3-10-7-5-3-6-4v-2l-4-2-13-10v-2l-4-2-8-8v-2l-4-2-9-10v-2h-2l-6-7-3-5-9-12-10-16-8-13-9-20-8-20-9-31-4-21-3-22-1-17v-34l4-33 6-32 4-16z" fill="#EADD74"/>
<path transform="translate(567,368)" d="m0 0 10 3 10 5 11 7v2l4 2 9 7 5 2v2h2v2l4 2 10 10 3 5 9 11v2h2l8 10v2h2l6 9 9 14 6 14 9 16 7 13 8 16 8 17 12 29 5 12 3 7 4 13 3 9 4 11 7 25 5 20 2 10 8 42 1 18 2 20 1 23v18l-1 7-9 14-12 16-7 9-6 7-4 5-6 7-1 2h-2l-2 4-3-1 3-10 2-16 1-14v-28l-1-5-2-25-4-26-1-10-1-3-4-22-4-17-5-17-2-9-4-10-6-22-5-13-4-13-6-16-6-14-7-17-7-15-9-19-6-11-10-19-7-12-5-8-7-11-6-8-7-10v-2l-3-1-5-7-3-3-5-6-3-2v-3l-4-2-5-5-11-9-9-6-10-5 1-4 4-4h2v-2l20-15h2v-2z" fill="#EADD74"/>
<path transform="translate(460,368)" d="m0 0 4 1v2l4 2 20 15 6 7v2l-6 3h-3v2l-11 7-11 9-14 14-7 9-8 10-7 10-7 11-9 13-3 6-5 8-6 11-5 8-3 8-9 17-6 14-4 10-4 8-8 20-4 11-7 20-10 30-4 13-1 5-5 19-5 23-2 10-6 32-4 42v35l4 26 2 9-4-2v-2h-2l-1-4-3-1-9-11-9-10-6-8-3-5-7-9-6-10-2-2-1-26 3-44 3-31 2-5 1-11 2-5 3-16 5-21 2-5 3-12 3-10 3-9 6-17 7-20 15-36 21-42h2l1-4 6-11 4-9 6-12 10-15 1-2h2l2-4 7-9h2l2-4 5-7 8-8 1-3 6-5 4-5 11-7 4-2v-2l18-12 12-6z" fill="#EADD74"/>
<path transform="translate(594,355)" d="m0 0h8l18 10 13 9 11 8 15 10 13 10 5 5 8 7v2l3 1 4 4v2l4 2 5 6 6 5 12 16 11 15 12 19 6 10 3 6 6 10 9 17 12 28v3h2l3 8 4 10 5 16 6 21 5 15 6 21 4 21 1 20-2 18-4 10-5 11-4 10-7 12-6 11-6 10-3 1-1-1-2-32-4-30-4-19-2-12-6-27-7-24-3-12-8-22-5-14-8-20-5-12-9-20-4-9-12-23-9-16-4-9-9-16-10-15-18-22-12-14-4-5-8-7-9-8-6-3-7-6-9-6-12-6 1-4 8-5z" fill="#F999C6"/>
<path transform="translate(428,355)" d="m0 0 9 1 10 4 2 2-1 4-16 8-13 10-5 3-14 12-9 10-9 11-12 14-6 8-5 6-3 6-5 8-8 14-4 9-12 22-6 12-7 15-10 23-8 20-7 18-6 18-3 7-3 14-5 18-2 5-5 25-3 13-3 17-5 42-1 22h-3l-10-16-8-16-12-25-3-9-3-23 3-21 5-22 3-11 4-10 4-16 7-23 3-9 5-11 8-20 4-9 8-16 14-24 8-14 9-14 4-5 10-14 8-11 8-7 4-5 16-16 11-9 6-5 16-11 17-12 10-7 16-9z" fill="#F999C6"/>
<path transform="translate(820,732)" d="m0 0h3l5 12 3 13-1 6-8 16-4 7h-2l-1 5-5 7h-2l-3-9v-3l-8 3 2 2-4 5-6 3 7-1v2h5l1-8h3l3 7-2 6-4-1 1 7-16 26-5 6-5 9-10 15-6 7-8 16-4 4-1 2h-2l-2 4-4 4-3 5-10 11-8 10-7 8h-2l-2 4h-2v2h-2l-1 4-26 26-8 7-14 12-11 9h-2v2l-11 7-8 6-11 5-10 4-10 2h-7l-3-5-5-8v-2l-3-1-7-8-7-6-6-3 1-4 17-5 21-9 21-11h2v-2l6-3 5-4 4-2 3-3 7-4 5-2v-2h2v-2l12-8 13-11 9-7 12-11 4-2 2-4 4-2v-2l5-5 3-1 2-4 7-7 6-7 4-4v6l6-1-4-1 1-4-1-4 1-2h2l2-4 7-10 4-6 7-10 8-11 2-3h2l2-4 7-12 9-17h2l2-6 7-11 6-11 8-14 4-3 3-5z" fill="#E9DC73"/>
<path transform="translate(205,732)" d="m0 0h5l6 8v2h2l3 6 6 9 9 17 6 9 11 20 6 10 7 8 6 9v2h2l2 5h2l5 9v2h2l4 6 7 9v2l-9-2-1-1-10-1v-2h-3l2 4 2 18 2 3 4-2 2-5 3 1v2h2l-3-5 1-3h9l4-2 15 16 6 7 2 1v2l4 2 15 15 3 2v2l4 2 5 3 5 5 7 5v2l5 2 12 9 8 5v2l4 1 5 4 6 4 18 10 16 8 15 7 17 5 2 1v3l-9 5-9 9h-2l-2 5-6 9-3 5h-9l-16-5-16-8-3-3-7-4-6-4-4-4-4-2-8-8-11-9-8-8-10-8-6-7-5-5-11-12v-2l-3-1-7-8-4-4v-2h-2v-2h-2l-4-6-9-10-4-6-3-3v-2h-2l-5-7-6-11-4-6-7-9-3-5-9-14-20-32 1-6 2-4 4 1 2 1-2-4 4-1v2l7-1v-6l-1 1v5l-7-2-5-4 1-4 7 1-15-4-1 6-3 6-4-4-7-11-8-14-3-7-1-3 5-19z" fill="#E9DC73"/>
<path transform="translate(366,1220)" d="m0 0 5 1 5 4 4 2 9 1 9-3 5-1 5 8 10 6 11 4h14l12-6 4 1 3 3v2l11 1h10l11-2 11-6 8-7 5 1 2 4 18 9 4 1h17l9-3 3-4h4v2l4 1 8 3h13l10-3 12-8 4-6 7 1 2 1h13l7-3 4-2v-2l7 1 4 3v2h2v2l4 2 4 4 1 6-3 5-3 3-18 8-31 6-15 2-47 2h-76l-56-1-28-3-19-3-19-6-8-3-7-4-3-8 1-4 8-7 5-5z" fill="#EADD74"/>
<path transform="translate(464,456)" d="m0 0h9l10 4 13 7 7 8h2l1 6 4 12 1 19-5 21-3 7-4 8-10 10-8 6-11 4-5 2-11-1-8-1-12-11-6-9-4-16-2-10v-15l1-9 3-6-1-4 3-5v-4l-2 1 2-5 7-11 5-6v3l-3 5v1l3-2 4-1 2-2 6-2 2-2 9-1z" fill="#FBCBE3"/>
<path transform="translate(513,85)" d="m0 0 4 1 6 8 9 13 7 14 4 14 1 7v18l-3 21-4 11-6 8-8 5h-17l-9-6-5-7-4-9-3-18v-25l5-19 7-14 9-13z" fill="#F999C6"/>
<path transform="translate(781,870)" d="m0 0 2 1 2 17v50l-2 21-4 18-4 11-5 8-4 4h-9l-7-6v-2l-4-2-8-11-8-14-8-19 1-4 6-6h2l2-4 3-1 2-5 6-8 5-5 7-9h2l2-5 6-8h2l1-4 8-11z" fill="#EADD74"/>
<path transform="translate(247,870)" d="m0 0 4 4 7 11 28 36 5 5 1 3 3 1 9 11 3 3-2 6-5 12-9 17-8 11-8 7-3 3h-9l-7-7-3-7-4-12-4-24-1-12v-42l1-23z" fill="#EADD74"/>
<path transform="translate(677,988)" d="m0 0h3l1 3 1 12v17l-2 14-3 12-6 15-5 8-8 10-10 5-3 1h-9l-9-6-7-7-5-9-6-14-3-9v-5l5-3 11-5 22-13 13-9 5-4h2v-2l6-4h2l2-4z" fill="#EADD74"/>
<path transform="translate(349,989)" d="m0 0 4 1 14 11 16 12 9 5v2l5 1 9 5 11 6 5 3 1 5-6 16-6 12-5 8h-2l-2 4-10 5h-9l-7-3-2-1v-2l-4-2-4-4v-2h-2l-7-12-6-16-3-15-1-20 1-16z" fill="#EADD74"/>
<path transform="translate(513,1008)" d="m0 0 6 2 7 7 6 10 6 16 2 9v23l-4 11-7 9-12 6h-6l-10-5-9-11-3-11-1-8 2-18 6-18 6-12 9-9z" fill="#EADD74"/>
<path transform="translate(853,989)" d="m0 0 11 3 11 7 4 3 6 1 5-1h9l2 2-1 7-4 13 2 7 8 13 1 7-2 3-5 1-12-1h-13l-9 10-5 5-5-2-3-8-3-11-9-7-10-4-3-6 2-6 10-7 5-10 7-18z" fill="#F99AC6"/>
<path transform="translate(462,477)" d="m0 0 13 1 8 5 5 4 4 7 2 9v17l-4 13-6 10-9 8-6 3h-14l-12-7-4-9-1-4v-19l3-12 3-10 12-13z" fill="#FCE6E9"/>
<path transform="translate(326,965)" d="m0 0 4 2 11 11v7l-1 2-1 13v26l3 16 3 10 5 11 6 10v2h2l7 8 8 5 5 2h18l9-4 10-9 1-3h2l2-5 5-10 5-15 1-5 4-1 1 1v9l-3 15-5 14-6 10-4 6-4 2-2 4-9 6-8 3h-12l-9-2-14-8v-2l-4-2-2-4h-2l-7-8-5-7-6-11-4-9-7-22-2-10-1-17v-16l2-14 3-10z" fill="#EADD74"/>
<path transform="translate(701,965)" d="m0 0 3 1 4 14 1 10v24l-3 19-8 24-8 16-7 10-7 8-10 9-13 6-9 2-12-1-8-3-9-7-8-9-8-16-2-5-4-18v-10l4-1 2 2 3 14 4 10 7 12v2h3v2h2l5 5 7 4 7 2h10l10-3 10-8 5-6h2l2-5 8-17 3-9 3-15v-30l-2-14v-5l9-9z" fill="#EADD74"/>
<path transform="translate(222,838)" d="m0 0h2l-1 6-3 11-3 15-2 18v43l3 27 4 15 5 17 9 19 8 10 9 9 9 4 11 1 9-2 7-4 7-5 4-5h2l-1 5-8 16-3 5h-2l-2 5h-2l-2 4-8 5-6 2h-9l-8-4-8-6-7-8-6-9v-2h-2l-5-12-6-15-4-13-1-9-2-6-2-10-2-22-1-21 1-23 3-21 4-15 5-17z" fill="#EADD74"/>
<path transform="translate(805,838)" d="m0 0 4 4 4 8 5 18 3 18 1 14 1 36-2 29-2 9-3 15-5 17-5 14-3 5-7 12-11 13-10 7-6 2h-10l-7-3v-2h-2v-2l-4-2-6-7-3-3-8-16-1-7 7 6 8 6 7 3 12 1 11-3 5-4h2v-2h2v-2l6-5 5-9 8-16 4-10 7-29 2-21v-45l-4-26-3-13z" fill="#EADD74"/>
<path transform="translate(314,1039)" d="m0 0 2 1 6 17 9 19 3 4v2h2l2 3v3h2v2h2l7 8 5 3 1 2 3 1v2l5 2 13 5 8 1h9l12-3 10-5 10-9 6-8 5-10h1v9l-3 13-6 15-8 11h-2l-2 4-3 3h-2v2l-12 5-4 1h-13l-10-3-12-7-8-6-7-8-1-3h-2v-3h-2l-8-12-6-12-5-13-4-13-3-17z" fill="#EADD74"/>
<path transform="translate(714,1038)" d="m0 0h1l-1 16-6 21-7 17-8 14-5 7h-2l-2 4-8 10-6 4-11 7-11 4h-13l-11-3-10-6-4-5v-2h-2l-7-11-7-17-3-18 3 1 5 9 9 11 2 1v2l4 2 9 5 13 3h8l12-2 17-8 5-5h2v-2h2v-2l5-5 8-10 10-17 8-24z" fill="#EADD74"/>
<path transform="translate(232,845)" d="m0 0 3 1 5 11-2 2-2 25v58l3 27 5 17 5 10 5 6v2l8 2h11l7-3 9-8 6-7 6-11 6-10 5-10h1v7l-6 21-6 15-7 12h-2l-2 5-7 6-9 4-10-1-9-6-9-10-8-15-6-16-4-16-2-13-1-2-2-19v-31l2-23 1-2 2-15z" fill="#EADD74"/>
<path transform="translate(795,846)" d="m0 0h2l3 8 1 7 2 7 3 28v34l-4 29-1 1-2 10-6 20-8 16-3 5-9 10-10 6-13-1-9-7-5-6v-2l-3-1-7-14-5-14-5-19v-5h2l8 16 4 6 5 8 3 3v3l4 2v2l3 1v2l4 2 7 3h13l6-4 4-4 3-5 5-12 4-16 3-33-1-43-2-30-1-3z" fill="#EADD74"/>
<path transform="translate(210,450)" d="m0 0 7 1 14 14 4 2h22l6 4 3-2-2 4-8 14-7 14 1 8 2 5v9l-1 1-13-1-1 2v-4l-10-1-9 6-10 8-3 2h-6l-3-4-1-26-5-5-12-10v-6l5-3 12-5 12-24zm4 14-5 8-5 10-9 6 1 4 7 6 2 4 2 15 4 1 11-8h12l3-2v-12l8-14-1-5-13-1-7-4-8-8z" fill="#F99CC7"/>
<path transform="translate(880,606)" d="m0 0 5 2 8 14 5 8 16 4 6 2 1 5-3 7-15 14-1 3-1 22-2 2-7-1-11-8-7-1-22 8h-2v5l-2-4-4-5v-18l1 2h2l1-5 1-7-8-12-3-4-2 1-1-6 4-2 3-2 15-2 7-6 8-10 6-5zm-1 16-8 7-6 7-11 3 2 6 4 10-1 16 8-1 6-2 8 1 6 3 4-1 1-11 3-5 11-10-3-4-11-4-6-8-4-6z" fill="#F99CC8"/>
<path transform="translate(303,640)" d="m0 0 11 1 4 4 2 3 2 8v16l-4 16-8 16-7 6-2 1h-9l-4-2v-2l-3-1-4-11v-14l2-11 5-15 7-10z" fill="#E0C666"/>
<path transform="translate(719,640)" d="m0 0h7l6 4 6 7 6 12 4 15v16l-4 11-5 5-2 1h-10l-7-6-7-14-4-10-2-11v-12l3-12 5-5z" fill="#E0C666"/>
<path transform="translate(358,519)" d="m0 0h7l5 4 1 3v12l-6 20-8 15-5 8h-2l-2 5-6 5-4 2h-7l-4-2-2-4v-16l6-18 7-14 6-9h2l2-4h2l2-4z" fill="#E0C666"/>
<path transform="translate(664,519)" d="m0 0h7l9 5 2 5 3 1 8 13 7 14 4 15 1 12-3 7-3 2h-8l-6-3-6-7-7-10-8-15-5-16-1-6v-9l4-7z" fill="#E0C666"/>
<path transform="translate(599,403)" d="m0 0 12 5 8 8v2l4 2 8 10 10 13 4 10-1 7-3 6-4 2h-7l-9-5-10-9-1-3h-2l-10-14-7-13-2-6v-9l5-5z" fill="#E0C666"/>
<path transform="translate(426,404)" d="m0 0h10l4 5v8l-4 10-7 13-6 7-7 9-8 7-7 4-6 1-6-2-4-6v-10l3-6 9-13 8-9 7-8 5-5 4-3z" fill="#E0C666"/>
<path transform="translate(283,745)" d="m0 0h9l7 6 3 10v18l-3 18-4 9h-2l-2 5-5 3h-6l-8-6-2-2-1-10v-19l3-16 5-10 5-5z" fill="#E0C666"/>
<path transform="translate(741,744)" d="m0 0 6 2 7 8 4 10 2 12v19l-1 10-4 5-4 3h-10l-5-4-5-9-4-21v-16l3-11 4-5z" fill="#E0C666"/>
<path transform="translate(140,798)" d="m0 0 4 1 5 8 4 6 10 4 1-3-1 36h-1v-22l-8 6-2 8-1 7-2 2-4-1-7-5h-7l-9 2h-6l-2-4 3-11v-8l-4-9v-3l13-3 11-9z" fill="#F99BC6"/>
<path transform="translate(739,374)" d="m0 0h5l3 3 4 10 12 7 2 4-4 6-8 8-2 11-1 1-7-1-7-3-8 1-2 2-2-1h-5l-3-3v-6l-3-5h4l1-2v-8l-5-8 2-4 11-1 5-3z" fill="#F99BC7"/>
<path transform="translate(473,1193)" d="m0 0h18l17 1 2 7v8l-4 11-8 9h-2v2l-10 5h-10l-6-4-4-3-1-4v-12l4-11 3-5z" fill="#EADD74"/>
<path transform="translate(538,1193)" d="m0 0h18l6 14 3 16-4 8-8 5h-9l-12-6-8-8-5-13 1-14 1-1z" fill="#EADD74"/>
<path transform="translate(579,316)" d="m0 0 5 2 3 2v2l3 1-3 5-12 4-12 5-30 15-10 6-5 2h-8l-16-8-19-10-17-8-12-4-6-3-1-3 8-7 7 1 10 6 8 5 19 12 12 6 6 4h10l3-2h4v-2l12-6 14-9 9-5 11-7z" fill="#EADD74"/>
<path transform="translate(802,360)" d="m0 0 7 1 7 13 8 6v6l-7 7-3 6-3 8-5 1-7-4h-18l-2-2 1-9 1-4v-7l-1-10 7-2 7-4z" fill="#F2E09B"/>
<path transform="translate(590,1189)" d="m0 0h7l6 8 5 11 1 5v9l-4 9-5 2-8-1-8-5-6-5v-2h-2l-5-7-4-10-2-3v-8z" fill="#EADD74"/>
<path transform="translate(431,1190)" d="m0 0h14l19 2 1 4-8 18-9 11-10 7-5 1-7-1-4-3-2-4v-10l2-9 4-10z" fill="#EADD74"/>
<path transform="translate(178,1065)" d="m0 0 7 1 10 6h9l3-1h7l2 2v8l-2 7v6l6 10 1 6-1 1h-19l-2 4-8 10-2 2-5-1-3-5-4-14-14-7-1-4 5-5 5-4 4-19zm5 11-5 15-3 5 5 4 4 3 4 9 5-1 3-4v-2l11-2 1-2-2-4v-8l3-9-1-1h-14l-6-3z" fill="#F99DC8"/>
<path transform="translate(245,1099)" d="m0 0 4 2 11 11h-3l-7-7-3-1-1 9 2 3-1 4-7 2-1 4 10-1 6-3h6l5 12 6 7-2 4-8 6-4 8h-4l-6-5-13-1-1-1 1-7 3-5-2-13-4-1-3-5-6-3 1-8 5-9h17zm-12 7-1 1v8l5 2 4-3 1-7z" fill="#F99BC7"/>
<path transform="translate(634,704)" d="m0 0 4 1 6 4 3 6 1 14-3 7-6 9-10 7-9 7-5 3-5-1v-10l2-5 3-4 2-11 3-13 6-9 5-4z" fill="#FCCBE3"/>
<path transform="translate(648,1181)" d="m0 0h5l3 5 2 6v10l-2 9-4 6h-12l-10-4-11-11-5-7-1-6 3-2 18-3z" fill="#EADD74"/>
<path transform="translate(376,1181)" d="m0 0 8 1 28 5 4 1v5l-10 13-8 7-8 4h-12l-4-4-2-4-1-15 3-10z" fill="#EADD74"/>
<path transform="translate(91,745)" d="m0 0 5 1 9 9 2 1 12 1 4 4-2 6-4 8v7l2 10-1 2h-6l-5-2h-7l-10 8-6 1-2-2-1-17-5-5-5-4-1-4 6-4 5-3 8-15zm2 10-6 12-5 3 2 4 4 6 1 9 5-1 4-3 10-1 1-5 1-7 4-6-1-3-9-1-9-7z" fill="#F99DC8"/>
<path transform="translate(797,417)" d="m0 0 5 1 2 2 1 14 9 11-1 5-17 9-4 8-5 1-8-10-2-1-14-1-3-2 1-6 9-12-2-9v-6l1-1 8 1 5 2 6-1zm-1 8-10 5-10-1v11l-3 4 1 5 9 3 5 5h2l3-5 8-4 3-1-1-5-4-5-1-6v-5z" fill="#F99EC9"/>
<path transform="translate(843,1059)" d="m0 0 6 2 4 5 3 9 5 2 5 3-1 5-6 6-1 3-1 17-1 1-7-1-9-6h-7l-4 2h-6l-1-3 1-13-6-12 1-5 5-2 9-1 2-4 6-7zm-1 11-10 7-7 2 2 5 3 4 1 8 1 1 10 1 1 1h6l2-7 4-7-1-4-4-2-4-6z" fill="#F3E0A2"/>
<path transform="translate(720,648)" d="m0 0 6 1 6 9 3 7 2 5 1 10 1 2v14h-2l-1 7-1 1h-5l-6-7-6-15-2-13v-13l3-7z" fill="#EADD74"/>
<path transform="translate(305,648)" d="m0 0 5 1 3 9-1 15-3 14-7 14-6 4-4-3-2-9v-9l2-14 5-13z" fill="#EADD74"/>
<path transform="translate(186,539)" d="m0 0 5 1 5 6 10 4-1 7-3 7-1 9-4 1-9-1-10 3-2-1-1-12-4-7 1-4 8-6z" fill="#F2E09B"/>
<path transform="translate(142,737)" d="m0 0h5l8 7 7 4-1 7-3 6-1 9-1 1-11-1-8 3h-4l-1-2-1-13-3-4 1-5 7-5 4-6z" fill="#F3E09D"/>
<path transform="translate(106,904)" d="m0 0 5 1 4 13 8 6v5l-11 8-5 11-3 1-7-8h-14l-3-1v-6l4-8-1-13 1-2 10-1zm-3 9-7 4-4 2-2 9v5l12 3h3l3-5 6-3 1-3-5-4-3-8z" fill="#F4E1A5"/>
<path transform="translate(667,527)" d="m0 0 5 1 4 4 9 14 6 13 4 14 1 11-3 2-5-5-7-9-1-4h-2l-5-12-4-10-2-8z" fill="#EADD74"/>
<path transform="translate(358,527)" d="m0 0h4v11l-5 17-10 19-7 9-5 3-2-2 1-12 6-18 9-17 3-1 2-5z" fill="#EADD74"/>
<path transform="translate(427,411)" d="m0 0 4 1-1 9-2 5h-2l-2 7-4 6h-2l-2 5-6 7h-2l-2 4-8 6-3-1-1-10 3-6 7-10 4-5 9-9h2l2-4z" fill="#EADD74"/>
<path transform="translate(598,411)" d="m0 0 6 1 7 6v3l5 2 6 8 7 9 6 9v10l-5 1-4-2v-2h-2v-2l-4-2-9-10-4-7-9-17z" fill="#EADD74"/>
<path transform="translate(880,735)" d="m0 0 7 1 6 3h12l1 1v16l2 4v5l-1 1-10 1-5 4-4 5-5-1-3-7-2-5-8-6 1-4 4-4 4-13zm3 7-4 12 1 4 4 4 3 5 6-5 7-2-1-8 1-6-1-2h-7l-5-2z" fill="#F4E2A9"/>
<path transform="translate(474,296)" d="m0 0h82l1 4-5 3-24 2h-28l-16-1-10-2-2-4z" fill="#EADD74"/>
<path transform="translate(637,967)" d="m0 0 11 1 1 1v18l-4 5-3-1-2-4v-8l-6 4-10 7h-2l-1 14-2 1v-10h-3l-3 16 4-2 1-2 2 1-3 5-4 1-2-2v-9l1-3h-5v2l-9 3v-2h2v-2l4-2-5-5v-6l2-3 9-1 6 4v2l7-3 9-6 5-4 1-2-6-1v-1l9-2 1-2-5-1z" fill="#E0C666"/>
<path transform="translate(913,693)" d="m0 0 5 1 3 9 4 2 1 5-7 5-3 8h-4l-4-5-10-1-3-2 2-5 1-2v-6l-1-1v-5l11-1z" fill="#F99BC7"/>
<path transform="translate(392,965)" d="m0 0h8l3 4-1 3-5 1 2-2-1-4-5 1-6 1 3 3 6 1-2 2h-3l5 5 2 1v2l5 2 3 3 6 2 3-2-1 5 4 2h7l2-2-1-5-1-1h-9l3-3h7l4 4v6l-4 3h-2l2 5-9-2 2 6-1 7-6 1-5-10v-14l-5-2-11-8-2-1-1 11-4 2-3-3-1-2v-8h1l3 9 2-3-1-10h-3-3l1-7 10-2z" fill="#E0C666"/>
<path transform="translate(739,754)" d="m0 0 5 5 4 11 2 11v18l-3 6-3-1-6-12-2-15v-12l2-9z" fill="#EADD74"/>
<path transform="translate(288,755)" d="m0 0h3l1 3 1 11v10l-2 12-4 9-2 4-3 1-2-3-1-16 2-16 3-10z" fill="#EADD74"/>
<path transform="translate(536,318)" d="m0 0 2 1-1 3-10 6-6 5-5 3-6-2-6-4v-2l-5-1-6-5-3-1v-2z" fill="#EADD74"/>
<path transform="translate(245,1099)" d="m0 0 4 2 11 11h-3l-7-7-3-1-1 9 2 3-1 4-7 2-1 4 3 1h-5l-1 2v-2l-4-1-3-5-6-3 1-8 5-9h17zm-12 7-1 1v8l5 2 4-3 1-7z" fill="#F4E2AC"/>
<path transform="translate(273,859)" d="m0 0h3v2h10l1 3 6 1 3 3-1 4-1 1h-6l2 7h-2l-3-3-2 6-4 2-3-4-2-18z" fill="#E0C666"/>
<path transform="translate(668,937)" d="m0 0 8 2h5l3-1v2h-2l1 4v14l-3 2h-3v-2h-2l-2-7-4 2 1-5h-7l-3-2v-5l4-3z" fill="#E0C666"/>
<path transform="translate(303,894)" d="m0 0 8 6 7 1h8l2 1v2h2l1 4-8 4 3 5v2l3 1v2l4 2 1 3 3 1v2l3 1-1 2-10-9-4-4v-2h-3l-2 8-5 2-1-2 4-4 1-5-1-6-5-2-1 6h-2l-2-13-5-6z" fill="#E0C666"/>
<path transform="translate(575,994)" d="m0 0h6l6 6 2 6 3 2-1 4 2 5v5l-3 3-4-2-3-7-1-7-9-7-1-5z" fill="#E0C666"/>
<path transform="translate(504,253)" d="m0 0h3l1 3v21l-1 1h-8l-8-3 1-4 10-15h2z" fill="#EADD74"/>
<path transform="translate(522,252)" d="m0 0 5 5 7 9 4 6v3l-9 3h-8v-19z" fill="#EADD74"/>
<path transform="translate(637,967)" d="m0 0 11 1 1 1v18l-4 5-3-1-2-4v-8l-6 4-10 7-2-1 5-5 5-3 5-4 1-2-6-1v-1l9-2 1-2-5-1z" fill="#E0C666"/>
<path transform="translate(773,826)" d="m0 0h7l1 14-4 7-7-1v-2l-4 1 2-5-5 1-4-4 3-5 1 3v2l3 1 5-5 1-4-6 1 1-2z" fill="#E0C666"/>
<path transform="translate(754,859)" d="m0 0 2 1-1 1v11l-2 7-2 5h-4l-3-7-4 3h-2l2-4 2-3v-4l4-4h2v-2l-10 1 3-2 12-2z" fill="#E0C666"/>
<path transform="translate(723,896)" d="m0 0 2 1-4 6-2 9h-2l-1-4-4 4h-2v12h5l2-1-1 4h-5l-3-3v-6h-3v2l-6 4v-3h2l2-4 2-2v-5l-5-1-1-2h9l4-2v-1h-7l-6 1 4-4 6-1h12z" fill="#E0C666"/>
<path transform="translate(392,965)" d="m0 0h8l3 4-1 3-5 1 2-2-1-4-5 1-6 1 3 3 6 1-2 2h-3l5 5 2 1v2l5 2 4 4-2 1-14-10-2-1-1 11-4 2-3-3-1-2v-8h1l3 9 2-3-1-10h-3-3l1-7 10-2z" fill="#E0C666"/>
<path transform="translate(212,760)" d="m0 0h9l1 3-4-1 3 6 1 1h6l-1 3h-6l4 10-1 3-3-3-4-9-5 4-3-1-1-8 3-7z" fill="#E0C666"/>
<path transform="translate(348,940)" d="m0 0h6l-1 4 5 1 6 1 3-3h2l-2 4-4 2h-3v3h-5l-1 5-2 3-5-1-1-2v-11z" fill="#E0C666"/>
<path transform="translate(248,826)" d="m0 0h8l3 2-1 5 4 4 4 1-1-5-1-2 4 2 1 3-1 4-5 1 1 5h-9l1-7-2-4-2-1v-2h-2v8l-2-2z" fill="#E0C666"/>
<path transform="translate(809,760)" d="m0 0h8l3 5v4h-2l-1-5-2 1 1 9h3v-4h2l-1 6-3 1-5-5-4 8-1-4 2-5-5 2-5-2 1-4 4-4 2 1-2 2-1 4 5-2 2-2 1-4h-2z" fill="#E0C666"/>
<path transform="translate(603,986)" d="m0 0h7l5 4-1 4-3 2h-6l-5-5 1-4z" fill="#EADD74"/>
<path transform="translate(419,986)" d="m0 0h6l3 4-1 4-2 2h-7l-4-3 1-5z" fill="#EADD74"/>
<path transform="translate(436,1006)" d="m0 0h6l3 2 1 3v7l-3 3v-8h-3l-1 2v6l3 3h-4l-2-3 1-9 1-4h-2z" fill="#E0C666"/>
<path transform="translate(575,996)" d="m0 0h6l4 4 1 6-3 1-6-4-1-3h-2z" fill="#EADD74"/>
<path transform="translate(411,994)" d="m0 0 4 4 2 11-1 2-4-1-2-5v-10z" fill="#EADD74"/>
<path transform="translate(664,940)" d="m0 0h8l3 1v3l-5 3h-6l-2-2 1-4z" fill="#EADD74"/>
<path transform="translate(282,863)" d="m0 0 7 1 4 1 3 3-1 4-7-2-5-3z" fill="#EADD74"/>
<path transform="translate(644,974)" d="m0 0 4 1v9l-3 5h-2v-14z" fill="#EADD74"/>
<path transform="translate(250,832)" d="m0 0h2v2l3 1 2 4v5l-3 2-4-6z" fill="#EADD74"/>
<path transform="translate(223,792)" d="m0 0h4l1 2-1 11h-3l-2-3z" fill="#EADD74"/>
<path transform="translate(277,867)" d="m0 0 5 5v8l-2 2-3-4-1-10z" fill="#EADD74"/>
<path transform="translate(678,945)" d="m0 0h2l1 2v7l-2 4h-2l-2-5v-5z" fill="#EADD74"/>
<path transform="translate(776,833)" d="m0 0 3 1-1 8-2 3h-4v-6l2-4h2z" fill="#EADD74"/>
<path transform="translate(586,1011)" d="m0 0 4 1 1 2v7l-2 2-3-2-1-8z" fill="#EADD74"/>
<path transform="translate(349,945)" d="m0 0 4 2 1 5-3 6-3-1v-7z" fill="#EADD74"/>
<path transform="translate(316,903)" d="m0 0h10l3 3v2h-8l-5-2z" fill="#EADD74"/>
<path transform="translate(749,868)" d="m0 0h3v8l-2 5h-3v-7z" fill="#EADD74"/>
<path transform="translate(245,1099)" d="m0 0 4 2 11 11h-3l-7-7-3-1-1 2-1-2-9-1v-1l10-1z" fill="#F8E8CE"/>
<path transform="translate(448,994)" d="m0 0h7l2 2-1 5-2-1v-4l-7 2-4 4 1-4z" fill="#E0C666"/>
<path transform="translate(815,764)" d="m0 0h2l2 5v5h-3l-2-9z" fill="#EADD74"/>
<path transform="translate(212,764)" d="m0 0h2l-1 10h-3l1-9z" fill="#EADD74"/>
<path transform="translate(423,483)" d="m0 0 1 2-6 10-2 1 1-6 3-4h2z" fill="#F8E3C8"/>
<path transform="translate(847,1061)" d="m0 0 4 2 5 10-1 2-8-13z" fill="#FCEAED"/>
<path transform="translate(239,1120)" d="m0 0 3 1-2 1-1 4 3 1h-5l-1 2v-2l-3-1 5-5z" fill="#FCE5E9"/>
</svg>
