<?xml version="1.0" encoding="UTF-8"?>
<svg version="1.1" viewBox="0 0 1008 1342" width="1008" height="1342" xmlns="http://www.w3.org/2000/svg">
<path transform="translate(0)" d="m0 0h1008v1342h-1008z" fill="#F8F6F6"/>
<path transform="translate(510,18)" d="m0 0h9l8 4 4 5 1 3v9l-5 10-3 2 2 4 12 12 6 8 9 13 10 19 6 18 3 16v27l-4 16-7 16-7 9-10 11-10 7h-2l2 7 7 11 8 12v2h2l9 11 7 9 12 14 7 8 4 4v2l3 1v2l4 2 12 11 10 7 34 26 20 15 6 4v2l4 2 11 9 22 22 1 4v6l1 1 9 1 8 8 2 5 3 1 6 8 8 11 7 10 13 21 10 21 10 22 6 12 7 16 5 11 8 23 4 12 7 18 5 14 7 25 2 9v14l5 7 5 22 5 36 4 47 3 42 1 22v30l-2 37-4 30-5 22-5 16-5 11-4 10-2 4-10 6-2 2 1 6 1 1-1 7-12 18-7 9-10 13-7 7-5 6h-2l-2 4-4 5-5 5-13 12-3 3h-2v2l-22 16-9 6h-3v2l-12 7-17 9-7 3-17 7 5 14 1 3v10l-2 5 1 7 11 13 4 7v7l-2 6-9 8-10 6-11 4-16 3-13 2-30 3-82 1h-45l-36-1-41-3-21-4-16-5-14-9-6-6-1-5v-8l7-9 8-10 2-5-3-8v-9l4-12 3-6-9-2-13-6-16-8-16-9-9-6-10-7-6-4v-2l-5-2-15-14-10-9-13-14v-2h-2l-7-8-11-14-10-13-7-11-7-12-10-21-8-20-8-30-3-18-1-13-1-3-1-22v-46l1-28 1-4 1-27 3-39 3-27 1-2 2-15 8-39 4-17 7-24 6-17 8-20 10-27 6-16 5-10 11-23h13l1-4-4-14 1-6 8-16 9-15 10-14 11-15 9-11h2l2-4 12-13 26-26 14-11 13-10 11-8 13-10 18-14 11-8 13-11 4-2 1-3h2l2-4 10-10 7-9 4-5 3-3 6-8h2l2-5 8-10 6-9 7-11 2-6-10-7-12-11-8-12-5-10-4-14-1-9v-23l2-12 5-18 11-23 10-14 8-10 12-12v-2l-5-5-3-8v-7l4-8 6-4z" fill="#E0C467"/>
<path transform="translate(496,406)" d="m0 0h6l9 9 2 3 4-1 9-10 1-1h6l16 8v2l4 2 13 12 5 6 9 9 8 11 11 16 9 13 4 8 7 11 2 2 2 6 7 12 11 24 7 15 9 21 4 10 4 11 4 10 3 10 2 3 4 13 8 25 4 13 1 9 4 12 4 21 1 2 6 39 2 12 1 18 1 6v37l-1 2-1 17-2 5-3 12-4 9-4 10-8 8-8 7-11 9-10 8-8 6h-2l-1 3-7 4-14 10-10 6-13 7-17 9-24 10-20 6h-9l-10-2h-17l-10 2h-10l-16-5-10-4-17-7-17-9-7-4-22-13-18-13-13-10-12-10-11-9-2-4-4-2-4-4-3-9-5-11-3-11-2-14-1-16v-27l3-33 4-24 2-15 3-15 3-9 2-11 3-11 3-9 3-12 2-5 3-12 3-8 4-14 4-10 4-12 6-12 3-9 4-9 3-8 3-5 2-6 7-16 4-6 9-19 7-12 4-7 13-21 8-11 7-9 9-11 9-10 9-8 5-5 12-8z" fill="#F9A6D1"/>
<path transform="translate(386,711)" d="m0 0 6 2 5 3v3l14 1 5 4 1 4 9 3 9 7 8 3 4 2 5-1 3 4 5 3 9 3 8 3 3 6v2l15 1 6 3 10 8 3 4 6 2 3 21v2l7 2 2 2 2 8 2 9 3 1 5 8 2 5 5 4 2 4 11 9 4 4 6 2 10 1h9l3-3 12-4 7-4 2-5 9-2 1-8 9-4 1-4 4-3 3-1 4-8 7-7 6-4 7-5 4-6 5-4 4-14 4-5 3-9 3-2 2-9 4-10 2-9h2l2 7 3 22 2 12 1 18 1 6v37l-1 2-1 17-2 5-3 12-4 9-4 10-8 8-8 7-11 9-10 8-8 6h-2l-1 3-7 4-14 10-10 6-13 7-17 9-24 10-20 6h-9l-10-2h-17l-10 2h-10l-16-5-10-4-17-7-17-9-7-4-22-13-18-13-13-10-12-10-11-9-2-4-4-2-4-4-3-9-5-11-3-11-2-14-1-16v-27l3-33 4-24 2-6 4 1v-7l12-4 7-3 5-4 14-3 10-5z" fill="#F887B3"/>
<path transform="translate(196,779)" d="m0 0 4 3 8 16 7 12 6 12-9 17-4 10-6 21-4 24-1 16v37l2 17 2 10 2 11 4 15 8 22 12 21 12 13 10 6 10 3h11l12-4 10-9 7-8 3-5h2l4 22 5 17 7 17 10 17 9 11 4 4v2l4 2 12 9 11 5 7 2 8 1h10l10-2 12-6 10-9 8-11 5-11 5-15 2-10 5 5 4 6 2 4 3 1 7 8 10 7 10 5 9 3 5 1h24l9-2 13-5 14-10 7-7h2l1-4 4-5 5-6 2 3 3 14 5 13 7 11 11 12 8 5 9 4 6 1h16l13-4 10-5 10-7 13-13 9-14 6-10 4-9 7-21 3-13 2-13 5 5 7 8 8 8 6 3 7 2h10l13-3 8-5 4-5 5-5 6-8 5-9 4-6 5-13 5-15 6-30 2-20v-42l-2-19-5-25-4-13-4-11-7-12v-5l9-17 3-5 9-17 3-1 4 16 3 15 4 21 3 21 1 21v25l-2 28-2 11-3 16-7 27-3 9-8 21-7 16-11 19-6 10-7 9-11 15-9 10-4 5-5 5-12 11-13 11-15 11h-2v2l-16 9-5 2v2l-10 4-11 6-16 6-21 7-25 6-11 2-47 4h-16l-16-1h-68l-35-3-27-5-29-9-21-9-9-4-11-6-12-7-10-7-9-6v-2l-5-2-14-12-21-21v-2h-2l-9-11-8-10-7-11v-2h-2l-9-15-9-17-10-24-8-24-5-19-3-16-3-26-1-17v-20l1-17 2-16 2-14 8-40z" fill="#EBDC74"/>
<path transform="translate(566,369)" d="m0 0 8 1 12 6 10 6 14 12 8 5 14 14 4 6 1 3 4 2 6 8 6 7 5 7v2h2l3 5 8 13 5 12 10 17 7 14 9 17 9 20 10 25 5 11 14 42 5 17 5 19 2 10 6 27 2 15 2 9 1 10v10l2 18 1 32-1 14-7 10-8 12-14 18-8 9-7 9h-2l-2 4-3 1 4-24 1-11v-38l-4-36-1-4-3-21-2-7-2-10-3-12-2-9-2-8-2-4-1-9-4-15-6-20-11-33-5-11-4-11-7-17-5-12-4-9-8-17-9-16-8-16-8-13-8-14-7-9-7-10-4-6-4-4-6-8-21-21-5-3v-2l-5-2-9-6-6-3 2-5 5-5 5-4 5-2v-2l12-9z" fill="#EBDC74"/>
<path transform="translate(457,369)" d="m0 0h6l12 10 6 4 10 9 3 3v2l-10 5-10 7-8 6-5 5h-2v2l-8 7-9 11-14 18-5 9h-2l-1 4-9 14-10 17-10 18-11 23-3 5-5 13-7 15-6 16-11 30-9 26-6 21-6 23-6 26-3 16-6 39-2 26v37l2 16 3 13v3l-4-2-8-9v-2h-2l-8-10-9-11-8-12-3-3-6-10-3-4v-42l1-16 1-5 2-26 5-29 3-13 4-18 10-35 2-4 2-9 8-21 7-20 7-17 7-15 16-32 12-22 8-16 5-9 8-12 5-6h2l2-5 12-14 8-10h2l2-4 4-4h2l1-3h2v-2l8-5 16-12 14-8z" fill="#EBDC74"/>
<path transform="translate(429,354)" d="m0 0 10 2 11 6-2 4-14 7-28 20-13 13-3 5h-2l-2 4-11 13-1 2h-2l-2 4-8 11-10 15-5 9-4 7-4 9-11 20-11 23-5 10-4 10-10 24-7 18-8 23-3 8-3 14-2 7-2 5-5 20-3 15-3 13-4 27-2 15-3 41-5-5-9-14-8-16-5-12-4-7-5-13-2-12-1-17 2-9 2-12 4-18 5-16 4-13 4-15 2-4 4-17 7-15 9-20 3-8 10-20 6-9 5-10 4-7 12-19 16-22 9-11 4-5h2v-2h2l2-4 15-15 8-7 12-10 12-8 17-12h2v-2l23-14z" fill="#F8A5D0"/>
<path transform="translate(596,354)" d="m0 0 5 1 14 7 11 7 11 8 14 10 3 1v2l5 2 14 11 17 16 15 15 9 11 6 8 4 6v2h2l7 11 4 5 4 7 8 15 4 5 8 16 2 2 4 10 10 22 9 20 5 16 8 27 3 11 3 7 2 10 4 16 2 9 1 21-1 17-5 13-4 8-7 17-5 8-11 19-2 3h-3l-1-13-2-29-1-3-2-18-4-18-2-13-5-24-5-17-4-13-2-10-6-15-4-13-9-22-6-16-4-7-4-12-3-5-16-32-9-16-3-8-5-8-4-7-8-12-11-14-6-7v-2h-2l-7-9-4-5v-2l-4-2-6-7-8-7-10-7-11-8-12-7-8-4v-2l12-6z" fill="#F8A5D0"/>
<path transform="translate(171,720)" d="m0 0h1v11l-1 2-3 27-4 56v10l-2 4-1 17-1 5-4 2-8 5h-6l-6-3h-11l-5 1-11-5-3-6v-9l1-7-1-8v-18h-5l-10 5h-9l-5-5-5-9-3-11-5-8v-10l4-6 6-4 4-6 3-6 7-5h12l9 6 10 3 5-1 8-7 5-5 4-2h9l10 8 7 5 2-15z" fill="#F8EFF3"/>
<path transform="translate(230,801)" d="m0 0 5 4 4 8 7 10 2 3 1 13 2 8 10-2 9 11 5 7v10l3 12 5-2 2-5 4 2 8 9v2l3 1v2h2l7 9 2 20 4 4 4-1 3-8 5 3 7 8 5 4v2l3-1-10-11-5-4-4-5 1-4 7-1-1-5-2-2-17-1-5-5v-2l-3-1-8-10-5-5-3-5h8l6-2 10 10 12 13 5 4 5 6 8 7 10 9 14 11 5 4 8 6 9 6 14 10 13 8 22 12 15 7 18 6 6 3-3 3-5 3h-2v2l-8 7-8 10-5 10h-7l-15-4-19-9-5-4-11-8-14-11-17-16-11-9-10-10v-2l-4-2-9-10-7-8-6-7-5-5-6-8-5-5-9-12-2-1v-2h-2l-5-9-8-13v-2l-3-1-8-12-7-11-9-14-7-11-7-12 2-5z" fill="#EADB73"/>
<path transform="translate(366,1220)" d="m0 0 5 1 3 3 6 3 11 1 11-4 7 9 8 5 12 4h14l9-4 5-2 7 6 3 1h18l10-2 11-6 3-3h2v-2h2v-2l4 1 8 7 12 6 4 1h22l3-2h3l2-5 4 1 4 3 6 2h15l10-3 10-6 4-5 2-3 6 1 5 2 15-2 8-6 5 1 12 10v2h2l1 2v7l-5 5-16 8-22 5-20 3-26 2-30 1h-69l-56-1-32-3-21-4-14-4-10-4-8-4-2-4v-8l13-12z" fill="#EBDC74"/>
<path transform="translate(800,356)" d="m0 0 9 1 6 5 6 7 8 11v6l-11 19-8 10v11l3 7 3 4 2 6v8l-1 2h-2l-2 4-5 3-6 4-7 6-5 2h-5l-6-4-5-3-9-3-8-2-4-5-8-11-6-8-4-4-7-8-1-1-9-1-2-2v-8l-7-8v-14l3-7 8-4 8-3 9-6 5-1 8 4 4 5v2l4 2 7 7 5 4 3 1 2-6v-17l5-5 12-6z" fill="#FAE6ED"/>
<path transform="translate(464,458)" d="m0 0h13l6 4 10 4 5 4 5 9 2 2 5 14v19l-3 17-8 16-6 7-5 5-8 6-10 4-9 1-13-1-5-1-13-13-3-6-3-15-2-11v-17l4-8 1-9 1-2v-6l-5 5-1-2 9-14 5-5 1 3v3l4-5 9-4z" fill="#FBCADE"/>
<path transform="translate(779,844)" d="m0 0 1 3-14 21-6 8-9 15-12 14-6 8-11 13-2 3h-2l-2 4-9 9-1 2h-2l-2 4-6 7h-2l-2 4-12 12-6 5h-2l-1 3-8 7-15 13-17 12-9 6-11 5-10 4-11 2-6-1-8-14-5-5-2-4-4-2-5-4-6-4 2-3 16-5 20-8 16-9 11-6 8-6 5-1v-2l11-7h2l1-3 16-11 11-9 9-7 5-5 7-6 1-2h3l2 5 6 1v5l-6 6h-2l-2 4-13 13-3 2-12-2-7 1-1 5 2 3 7 2 1 4h3l4 6h4 2v-19l4-4h2l1-3h2l1-3h2v-2h2l2-4 8-6 3 8h6l2-4 2-19 9-11 14-15 2 3 2 4h5l2-11v-11l7-7 6-10 5 1 6 1z" fill="#EBDC74"/>
<path transform="translate(856,983)" d="m0 0 10 3 8 5 5 3 2 1 16 1 4 2 4 5 1 3v7l-2 5 1 11 6 11 1 10-3 6-3 3-9 2h-16l-8 5-5 6 1 4v10l-4 8-2 14-4 6-8 3-13-3-2-2-13-1-2-1v-2h-2l-3-9-1-14-2-8 1-5 10-8 9-4 4-3 4-2-7-8-5-3-2 4-4 4 2-5 5-8v-5l-2-3 1-5 5-4 5-3h2l1-4 12-30h2z" fill="#FAF4E5"/>
<path transform="translate(791,596)" d="m0 0 3 3 5 18 3 11 3 7 2 10 4 16 2 9 1 21-1 17-5 13-4 8-7 17-5 8-11 19-2 3h-3l-1-13-2-29-1-3-2-18-4-18-2-13-5-24-5-17-4-13v-8l1-2 4 1 1 2 4-1 3-5 1-1 9-2 2-9 2-3h13z" fill="#F887B3"/>
<path transform="translate(182,1059)" d="m0 0 14 5 19 1 5 5 12 14 3 3v2h2l9 11 11 11 8 7 10 9 5 3v2l5 2 8 6 9 6 13 8 11 6 8 4-2 1-12-5-11-7-9-5-10-7-11-8-5-3 2 6v7l-4 8-5 4-6 7-2 1h-9l-10-3-8-5-2-5v-12l-1-9-7-4-5-7-12 2-7 6-5 5h-10l-5-3-3-5-3-9-6-5-5-4-2-3v-7l2-7 6-10 5-12 3-3h2v-2z" fill="#F9F3E4"/>
<path transform="translate(513,85)" d="m0 0 4 1 12 16 8 13 5 16 2 10v21l-2 15-2 9-8 13-6 5-6 2-14-1-7-4-6-7-5-11-3-18v-27l6-20 4-8 13-19z" fill="#F9A6D1"/>
<path transform="translate(879,606)" d="m0 0 5 1 6 8 8 14 8 3 13 3 3 2v9l-4 6-6 6h-2l-2 4-2 5-2 22 14 3 4 10 5 5-1 4-7 5-3 8-4-1-4-4-12-2-2-1 4-12-2-5-1-6-9-5-7-4-12 1-5 2-9 2-4 1-5-7v-14l-4-17-4-12v-6l6-5 14-1 8-7 8-10z" fill="#F887B3"/>
<path transform="translate(246,871)" d="m0 0h2l7 10 12 16 2 5 3 1 7 9 9 11 11 12 7 8-1 7-5 12-9 16-8 11-4 5-8 6h-7l-5-4v-2h-2l-6-14-4-16-3-28v-41z" fill="#EBDC74"/>
<path transform="translate(781,871)" d="m0 0h2l1 12 1 27v21l-2 26-4 19-5 14-4 6-3 3-9 1-8-7-8-9-9-14-10-22-1-4 13-13 6-8 11-13 13-17 3-3 4-7z" fill="#EBDC74"/>
<path transform="translate(678,988)" d="m0 0 2 1 1 4v37l-6 21-5 12-8 11-9 8-9 3h-7l-6-3-10-9-6-11-5-12-3-6v-9l5-3 16-8 14-9 9-5h2v-2l12-9 9-7z" fill="#EBDC74"/>
<path transform="translate(349,989)" d="m0 0h3v2l5 2 7 6 2 1v2l4 2 21 14 10 6 15 8 6 3v8l-4 9-2 6-5 10-8 10-7 5-5 2h-7l-9-4-9-8-7-11-6-13-4-13-1-9v-34z" fill="#EBDC74"/>
<path transform="translate(210,449)" d="m0 0h5l10 9 8 8 9 1h16l5 6-2 5-10 18-2 5 1 8 3 11-2 4h-8l-5-1-1 2v-3l-10-1-11 7-9 7-3 2-6-1-3-4-1-26-5-5-12-11 1-5 6-4 10-4 3-5 7-16z" fill="#F887B3"/>
<path transform="translate(855,989)" d="m0 0 5 1 10 5 8 6 7 1 12-1 4 2 1 3-5 17 1 6 8 14 2 7-3 5h-30l-11 12-4 2-4-2-3-7-3-11-5-5-10-6-4-1-3-6 1-5 5-4 5-3h2l1-4 8-20 3-5z" fill="#F887B3"/>
<path transform="translate(511,1009)" d="m0 0h6l8 7 6 10 8 21 1 7v21l-5 12-7 8-9 5-7 1-10-5-7-7-5-10-1-6v-19l3-12 5-14 4-8 5-6z" fill="#EBDC74"/>
<path transform="translate(821,594)" d="m0 0 2 3 7 17 3 9v2l9-5 9-1 7-5 7-8 6-5 3-1h10l11 6 8 14 4 3 12 4 8 7 2 5-1 9-4 7-3 3-9 11-1 3v7l3 5 9 4 6 7 5 10-1 6-3 8-4 2-2 5-9 4h-7l-12-4-4-4-3-4-2-18-4-7-3-2h-12l-6 2-5 2h-4l5 26 3 22 1 14 2 9v19l2 11 3 54v55l-3 38-5 25-2 6v7l12 5 8 5 5 2 14 1 6 3 4 4 1 3v8l-1 2v16l7 14v9l-6 8-9 2-21 1-9 12-3-1 1-4 7-8 6-3h16l9-2 4-5 1-6-2-9-5-9-1-11 2-5v-7l-1-5-3-1v-2l-4-1-16-1-6-3-5-4-9-4-4-1-2 1 1-7 5-22 4-30 2-37v-30l-3-54-2-19-3-38-6-41-3-13 1-5 5-2 9-2 8-2h6l11 6 6 4 2 9 1 3-4 9-1 2 14 2 5 5 3 1 3-9 5-4h2v-6l-4-2-4-8v-3l-8-1-7-2 2-22 3-6 5-5 7-8 1-2 1-9-16-4-8-3-6-9-6-11-3-3-6 1-7 6-8 10-6 5-14 1-7 5-9-25-5-12z" fill="#F9EFF3"/>
<path transform="translate(326,966)" d="m0 0h3l7 8 5 5-1 7-2 19 1 21 3 16 4 15 6 10 6 9 6 7 14 7 12 1 12-3 6-4 3-1v-2l4-4 6-9 4-8 5-14 1-7 3-1 2 1-1 13-4 16-4 10-8 14-7 6-3 3-10 5-9 2-9-1-8-2-13-8-16-16-12-22-5-14-5-19-1-6v-38l3-11z" fill="#EBDC74"/>
<path transform="translate(701,966)" d="m0 0h2l3 7 2 9 1 15v11l-2 19-5 19-7 18-8 13-7 9-7 8h-2l-1 3-12 7-9 3-10 1-10-2-9-5-8-7-6-9-8-16-4-16-1-13 3-2 2 1 1 8 3 8 6 13 4 7 5 5 8 7 6 3 5 1h12l10-3 4-2v-2l8-7 4-5 4-6 7-16 5-19 1-26-2-19-1-7 11-11h2z" fill="#EBDC74"/>
<path transform="translate(221,842)" d="m0 0 1 3-2 9-5 30v52l3 23 5 20 6 16 7 14 10 13 10 8 6 2 13 1 10-3 9-6 7-6-1 5-8 16-8 10-7 6-10 4-10-1-10-6-11-11-8-13-6-12-9-27-2-10-3-16-2-22v-31l2-23 5-24 6-18z" fill="#EBDC74"/>
<path transform="translate(467,478)" d="m0 0h7l8 6 7 6 3 5 1 6v18l-4 10-8 15-5 4-6 3-4 1-13-1-5-3-5-7-3-9v-16l2-9 5-10 2-7 10-10z" fill="#FBE7EE"/>
<path transform="translate(807,841)" d="m0 0 2 2 5 13 5 21 1 2 2 25v47l-1 13-5 25-2 4-3 12-6 15-10 18-8 10h-2l-1 3-4 1v2l-12 5-13-2-5-3v-2l-4-2-8-9-8-15-2-5 1-4 5 5 2 4 4 2 12 5h12l10-4 6-4 8-8 9-15 8-19 3-10 4-20 2-17 1-21-1-29-4-26-3-14-1-4z" fill="#EBDC74"/>
<path transform="translate(314,1041)" d="m0 0 3 3 6 16 8 16v2h2l7 11 8 8v2l5 2 8 6 12 5 7 2h16l15-5 10-8 10-11 5-11h1v7l-4 16-5 13-7 10-8 9-14 7-14 1-13-3-16-10-5-5v-2l-3-1-10-13-9-14-6-14-6-19-2-9z" fill="#EBDC74"/>
<path transform="translate(713,1040)" d="m0 0h2l-2 16-4 16-5 12-7 14-5 9-9 11-4 5h-2l-2 4-10 7-11 6-9 2-14-1-7-3-10-6-10-12-7-14-5-19v-6l3 3 5 8v2h2l7 8 9 7 11 4 5 1h15l15-5 12-7 10-10 2-3h2l2-4 9-14 5-11z" fill="#EBDC74"/>
<path transform="translate(232,847)" d="m0 0 3 1 4 7v3h-2v10l-1 11-1 26v31l3 28 3 14 5 13 5 8 4 5 8 3h7l6-2h4v-2l8-7 6-7h2l1-5 10-16 4-9 2-1-1 7-4 16-7 18-7 12-10 11-10 5-9-1-9-5-2-4h-2l-7-9-8-16-6-18-4-17-2-10-2-21v-26l2-23 3-17z" fill="#EBDC74"/>
<path transform="translate(800,356)" d="m0 0 9 1 6 5 6 7 8 11v6l-11 19-8 10-10-2-1-1-9 1-7 2-15 2-5 3-2-4 9-15 1-7h2l2-6v-17l5-5 12-6z" fill="#FAF4E5"/>
<path transform="translate(796,846)" d="m0 0 2 4 2 5 4 23 2 27v14l-2 23-2 15-1 2-1 9-7 21-8 16-6 10-8 7-6 4h-13l-7-4-8-8-7-10-8-18-6-23v-5l4 4 8 16 7 10 7 9 7 6 6 3 13 1 7-5h2v-2l3-3 6-12 4-15 3-23 1-10v-37l-3-42-1-2 5-9z" fill="#EBDC74"/>
<path transform="translate(820,732)" d="m0 0 3 1 5 12 3 15-1 3h-2l-1 6-8 15-6 9-4 4-4-8 1-6 6-11 5 4h3v-8l-2-6-5-2-5 1-8 6-1 5h9l-3 10-2 4-4 2-9 2-5 3-2 7 12-1-2 5-6 10-1 3 5-5 5-10 4-1 2 5 1 4-8 13-8 14-6 7-1-3 1-17-3 2-10 2-6 4-2 3 1 4 4 1h2l-1 4-8 10-2 4-3 2-16 4-3 1 1-4 8-10 7-11 6-8 7-11 8-9 13-23 11-18 10-18 3-5 6-8 2-4h2z" fill="#EADB73"/>
<path transform="translate(302,640)" d="m0 0h10l5 2 4 9 1 4v19l-4 15-8 15-7 6-2 1h-10l-7-6-3-8-1-14 4-18 6-14 6-7z" fill="#E0C466"/>
<path transform="translate(718,640)" d="m0 0h8l8 5 8 13 4 11 2 8v18l-3 10-5 5-3 1h-10l-7-6-6-10-5-13-2-8v-18l3-10 4-5z" fill="#E0C466"/>
<path transform="translate(177,1065)" d="m0 0h7l12 7 8-1 9-1 4 3-1 10-2 7 1 5 6 11-1 5-18 1-8 10-5 6-6-1-3-7-3-12-16-9 2-5 9-7 3-18z" fill="#F9A6D1"/>
<path transform="translate(357,519)" d="m0 0h8l3 1 3 5v14l-5 16-4 9-5 10-9 12-6 5-4 2h-8l-5-5-1-3v-10l4-15 7-16 6-9 3-5 9-9z" fill="#E0C466"/>
<path transform="translate(663,519)" d="m0 0h9l9 6 7 9 12 22 2 9 2 6 1 14-2 5-3 3h-9l-8-5-4-5-7-9-8-16-5-14-1-7v-11l3-6z" fill="#E0C466"/>
<path transform="translate(206,732)" d="m0 0 4 1 8 11 6 9 6 10 5 10 7 10 11 21 7 11 6 7 8 11 6 8 6 10 8 9 1 4-8-2-2-1-9-1-3-2-3-5-5-6-3-6 7-1-1-7-7-5-11-2-6-9-3-5v-2h-2l-4-8-1-3 8 1 3-1-1-5-1-3-10-3-7-2-4-9v-5l6-1v-5l-7-6-11 1-2 12 1 3 5-1 3-3 7 14-1 4-3 7h-2l-7-12-6-9-5-11-2-4 1-10 6-18z" fill="#EBDC74"/>
<path transform="translate(594,403)" d="m0 0 9 1 8 4 8 7 8 10 7 8 6 8 5 11v7l-4 7-3 2h-9l-10-6-12-12-11-15-5-11-3-12 2-6z" fill="#E0C466"/>
<path transform="translate(227,524)" d="m0 0h6l3 3-2 6-8 17-8 18-9 26-12 31-5 14-7 26-5 22-7 33h-1v-7l2-12 2-6 4-21 9-32 4-14 10-25 7-20 11-28 6-13 7-15-9 2-4 4-8 5-4 2 1 7 1 8-2 10-5 10-6 5-16 1-6-2-5-5-3-15-1-1v-7l4-6 13-9 3-3 5 2 7 4 11-3 14-11z" fill="#FAF4E5"/>
<path transform="translate(432,403)" d="m0 0 5 2 4 5-2 12-9 17-11 13-3 4h-2l-2 4-10 7-3 1h-8l-5-6-1-2v-10l5-10 10-13 2-3h2l2-4 7-7 4-5 9-4z" fill="#E0C466"/>
<path transform="translate(90,744)" d="m0 0h6l11 8 12 3 4 4 1 4-6 10-1 8 2 6v7l-4 1-10-3-5 1-12 9h-6l-1-4-1-17-10-9-1-2 4-6 5-4h2l2-6 5-8z" fill="#F887B3"/>
<path transform="translate(283,745)" d="m0 0h10l5 4 4 11v20l-3 18-4 8-6 7-2 1h-8l-7-5-2-3-1-6v-25l3-14 6-12z" fill="#E0C466"/>
<path transform="translate(739,744)" d="m0 0 6 1 5 3 5 8 3 7 2 13v20l-1 9-7 8-3 1h-7l-6-5-6-12-3-16v-20l3-9 4-6z" fill="#E0C466"/>
<path transform="translate(140,797)" d="m0 0 4 1 5 7 4 8 10 4 1 2v7l-2 4-4 2-4 4-3 14-4 2-10-6h-7l-10 2-5-1-1-1 1-9 2-8-1-6-4-8 2-4 12-3 9-7z" fill="#F887B3"/>
<path transform="translate(461,471)" d="m0 0h14l12 5 3 3 8 14 2 13v12l-3 12-2 6-4 7-6 8-8 4-4 4-7 2h-9l-10-4-7-6-6-9-2-9v-15l2-14 8-16 8-10 8-6zm6 7-9 3-9 9-4 12-3 5-2 9v16l3 9 6 8 4 2 13 1 8-3 6-4 4-6 8-17 1-3v-18l-2-7-2-4-7-6-8-6z" fill="#FAD5DE"/>
<path transform="translate(879,606)" d="m0 0 5 1 6 8 8 14 8 3 13 3 3 2v9l-4 6-6 6h-2l-2 4-2 5-2 22 14 3 4 10 5 5-1 4-7 5-3 8-4-1-4-4-12-2-2-1 4-12-2-5-1-6-9-5-7-4-12 1-5 2-9 2-4 1-1-3 9-4 10-4 7-3 7 1 12 9 5 1 1-2v-21l7-9 7-6h2v-2l3-2 1-7-21-5-4-4-9-17-3-3v-2l-6 4h-2l-2 5-8 9-4 5-2 1-13 1-5 1 3 8 9 13-2 11-4 9h-1l-3-14-5-18-1-2v-6l6-5 14-1 8-7 8-10z" fill="#FAD2DE"/>
<path transform="translate(738,374)" d="m0 0h6l4 4 4 8 12 8 1 1-1 7-9 9-2 4-2 9-5 1-9-4h-9l-1 2-9-1-2-2v-10l1-1 1-9-6-10 2-4 13-2 7-5 1-2h2z" fill="#F887B3"/>
<path transform="translate(796,417)" d="m0 0h5l3 3 1 14 9 10 1 5-5 4-12 5-2 2-3 7-2 2-4-1-8-9v-2h-16l-4-3 1-6 10-12-3-11 1-5h7l10 3z" fill="#F887B3"/>
<path transform="translate(171,720)" d="m0 0h1v11l-1 2-3 27-4 55h-1v-24l1-12v-12l-1 5-15 6h-10l-10-1-2-3 1-8-3-12-1-6 5-5 10-9 3-1h9l10 8 7 5 2-15z" fill="#FAF4E5"/>
<path transform="translate(632,702)" d="m0 0h6l6 4 3 5 1 4v18l-4 8-7 7-8 7-10 7-3 3h-8l-1-1v-11l2-7 4-5 3-11 1-1 2-11 4-8 4-5z" fill="#FCCADF"/>
<path transform="translate(474,1193)" d="m0 0 34 1 2 7v8l-4 11-3 3-4 5-9 6-5 2h-8l-8-5-3-3-1-3 1-14 3-10 3-3z" fill="#EBDC74"/>
<path transform="translate(546,1193)" d="m0 0h9l5 9 3 9 2 11-5 10-7 4h-8l-11-5-8-7-5-10-1-3v-13l1-4z" fill="#EBDC74"/>
<path transform="translate(877,602)" d="m0 0 10 2 6 4 8 14 3 3 8 2 9 4 4 5 1 7-4 10-5 5-7 8-1 2v16l2 3 8 2 5 5 5 7 1 3v8l-5 9-5 5-9 1-11-3-8-6-1-19-4-7-8-5h-7l-15 5-1 1h-5v-4l5-2 9-2 8-2h6l11 6 6 4 2 9 1 3-4 9-1 2 14 2 5 5 3 1 3-9 5-4h2v-6l-4-2-4-8v-3l-8-1-7-2 2-22 3-6 5-5 7-8 1-2 1-9-16-4-8-3-6-9-6-11-3-3-6 1-7 6-8 10-6 5-14 1-7 5v-6l12-6 6-2 5-4 16-14z" fill="#FAE6ED"/>
<path transform="translate(842,1060)" d="m0 0 4 1 6 9 2 6 11 3 1 3-4 5h-2v2l-3 3v18l-5 1-9-5-5-3-10 3-4 1-1-1v-7l1-8-7-14 4-4 9-1 5-4z" fill="#F4DD87"/>
<path transform="translate(447,317)" d="m0 0 6 1 10 6 8 5 10 6 17 10 12 6 6 1 10-4 16-9 22-14 13-8 7 1 5 5-1 4-13 5-12 5-17 8-22 12-7 3-9-1-18-10-21-10-10-5-11-4-8-4v-3l3-1v-2z" fill="#EBDC74"/>
<path transform="translate(431,1190)" d="m0 0h12l21 2v7l-9 18-5 6-11 8-3 1h-10l-6-7v-8l2-10 4-10z" fill="#EBDC74"/>
<path transform="translate(585,1190)" d="m0 0h13l6 10 3 7 2 6v8l-3 8-4 3h-9l-8-4-10-10-4-6-6-13v-7z" fill="#EBDC74"/>
<path transform="translate(214,468)" d="m0 0 6 1 9 7 12 1 3 3-2 6-5 8v13l-1 2h-11l-5 2-8 5-4-2-3-12-4-6-4-4 1-5 5-3h2l2-5 4-8z" fill="#F8F7F7"/>
<path transform="translate(879,625)" d="m0 0 4 1 6 9v2l12 4 1 7-6 6h-2l-3 9-1 7h-6l-4-2h-8l-6 2h-4v-2h-2v-15l-4-9 1-5 9-3 7-8z" fill="#F9EFF3"/>
<path transform="translate(665,953)" d="m0 0 3 1-4 5-8 7-4 3h-2v16l-3 6-5 1-2-3-1-9-15 11-3 3 1 1v9l-3 8-3 2-5-1-1-8 1-5-17 8-3 1 2 4v10l-4 3-6-6v-11l-4-2-6-4-2-5 1-3 2-1h7l5 4 3 7 7-1 7-5 1-2-4-2-1-1v-8l3-2h8l5 2 2 3 6-2 5-4 8-6 1-2h-5l-5-3-1-4 3-3 4-1 9 3h8l5-5z" fill="#E0C466"/>
<path transform="translate(803,361)" d="m0 0 5 1 4 9 4 5 7 4 1 5-9 8-2 4-2 10-4 1-7-6h-9l-2 1h-9l-1-4 4-9v-7l-3-6 1-5 9-1 6-4z" fill="#F4DD87"/>
<path transform="translate(391,965)" d="m0 0h10l2 2-1 5-6 3h-4l5 5 10 8 5 1 4-4 3-1h8l3 3 1 6-6 5 3 3 11 5 5-9 4-3h8l2 4-4 6-6 5h-2l1 6-3 7-5 4-4-5v-6l2-3v-3l-12-6-7-3 1 5v7l-6 3-4-5-2-5v-12l-1-3-5-2-11-8-1 9-3 3-5-2-2-6v-13l1-3 9-2z" fill="#E0C466"/>
<path transform="translate(182,1059)" d="m0 0 14 5 19 1 7 7 1 5-1 13 3 8 1 4h-2l-2 9-4 6-13 3-7 6-5 5h-10l-5-3-3-5-3-9-6-5-5-4-2-3v-7l2-7 6-10 5-12 3-3h2v-2zm-5 6-3 8-2 14-9 7-2 5 16 9 4 15 2 4 6 1 11-13 2-3 18-1 1-5-6-11-1-5 3-12v-5l-4-3-9 1-8 1-12-7z" fill="#FAE6ED"/>
<path transform="translate(208,445)" d="m0 0h7l12 6 8 7 4 2 16 1 10 6-1 6h-2l-4-5h-22l-5-3-13-13-3-2h-5l-5 6-8 19-5 4-12 5-2 2 1 5 10 9 6 6 1 26 4 4 5-1 9-6 9-7 4-2 8 1 2 1v5l-4-2-9 1-11 9-9 4-6 1-10-7 1-3v-16l-6-10-8-9-2-5v-5l4-6 11-7 6-8 7-14 6-4z" fill="#FAE6ED"/>
<path transform="translate(648,1181)" d="m0 0h5l4 9 1 11-2 9-4 7h-10l-9-3-9-7-8-9-3-9 4-2 20-3z" fill="#EBDC74"/>
<path transform="translate(377,1181)" d="m0 0 22 4 17 3-1 5-4 7-7 8-9 7-5 2h-11l-5-5-2-4v-17l2-6z" fill="#EBDC74"/>
<path transform="translate(820,732)" d="m0 0 3 1 5 12 3 15-1 3h-2l-1 6-8 15-6 9-4 4-4-8 1-6 6-11 5 4h3v-8l-2-6-5-2-5 1-8 6-1 5h9l-3 10-2 4-4 2-9 2-5 3-1 2h-2l2-6 11-18 10-18 3-5 6-8 2-4h2z" fill="#EBDC74"/>
<path transform="translate(106,905)" d="m0 0 4 1 2 6 2 8 8 4v5l-10 6-5 11-1 2h-2l-7-8h-16l-1-4 5-9v-7l-1-8 5-1h6z" fill="#F4DD87"/>
<path transform="translate(258,1121)" d="m0 0 4 2 5 12 5 4v5l-10 8-4 8h-4l-5-5-15-2-1-5 4-7v-14l13-2z" fill="#F887B3"/>
<path transform="translate(856,983)" d="m0 0 10 3 8 5 5 3 2 1 16 1 4 2 4 5 1 3v7l-2 5 1 11 6 11 1 10-3 6-3 3-9 2h-16l-8 5-6 8-9-2v-3h-2l1-2 5 1 9-9 4-5h30l2-5-2-6-8-14-1-6 5-18-1-2-5-1-14 1-9-5-9-6-5-2h-5l1-5h2z" fill="#FAE6ED"/>
<path transform="translate(136,794)" d="m0 0h9l8 6 1 5 3 1 2 3h4l1 7-3 1-9-4-7-13-2-2-4 1-13 10-12 3-1 3 5 10-1 9-2 6v6l5 1 10-2h7l10 6 3-1 3-14 7-7h1v14h-2l-3 6-5 5-2 1h-8l-6-2h-11l-9-2-4-3-2-8 1-15-1-9 2-8 4-3h2l1-3h3v-2l13-5z" fill="#FBE6ED"/>
<path transform="translate(89,742)" d="m0 0h9l12 7 3 1h10l4 10 1 8-2 8-2 5v10l-3 7-1 2h-19l-7 5-8 1-6-2-3-6-2-3-2-11-6-9v-9l5-6h2l2-4 4-4 4-8zm1 2-4 4-6 10v2l-4 2-5 4-2 5 8 8 3 2 1 17 1 4h6l13-10 8 1 8 2 2-1v-7l-2-6 1-8 6-11-2-4-3-3-14-4-9-7z" fill="#FAE6ED"/>
<path transform="translate(104,901)" d="m0 0 8 1 5 4 8 14 2 3-1 7-5 9-5 5-8 7-3 1-18-5-7-2-4-4-1-7 2-9 4-15 3-3 9-3 4-2zm2 4-11 6h-10l-1 1 1 15-5 9 1 4h16l7 8h2l4-9 2-4 10-6v-5l-8-4-3-13-2-2z" fill="#FAF4E5"/>
<path transform="translate(352,637)" d="m0 0 1 4-4 10-2 8-3 9-3 12-2 5-6 27-2 7-3 16-4 27-3 25-1 18v23l2 23 3 14 4 11 4 8 2 6 6 5 5 6 14 11 13 11 17 12 14 9 11 7 7 4 17 9 23 10 24 8h10l10-2h17l10 2h9l20-6 12-5 16-7 15-8 11-6 5-3 2 1-9 6-25 13-13 6-12 5-18 6-12 1-13-3h-11l-9 1-6 2-12-1-15-5-10-4-21-9-15-8-18-11-16-10-4-3v-2l-5-2-9-7-13-11-8-6-12-11-5-5-3-9-7-16-3-13-2-27 2-49 1-2 4-31 1-1 2-16 1-1 1-11 3-9 4-15 2-8 7-26 5-16z" fill="#EBB989"/>
<path transform="translate(881,735)" d="m0 0 6 2 5 3h13l-1 15 4 8-1 2-12 1-7 9-4 1-3-7-2-7-9-5 2-4 4-3 3-13z" fill="#F4DD87"/>
<path transform="translate(720,648)" d="m0 0 5 1 7 9 5 13 1 10v15l-2 7-5 1-7-8-5-12-2-9v-22z" fill="#EBDC74"/>
<path transform="translate(305,648)" d="m0 0h4l3 5 1 10-2 16-5 14-5 8-3 3-5-1-2-6-1-10 1-11 3-11 6-12z" fill="#EBDC74"/>
<path transform="translate(885,731)" d="m0 0h7l9 3 6 3 2 2 2 12 2 5-1 8-5 6-11 6-3 3h-13l-2-2v-3l-4-2-5-8-3-3 1-8 5-11 2-6 3-1v-2zm-4 4-2 2-3 13-6 5 1 3 9 5 2 8 2 5 4-1 7-9 12-1 1-2-4-8 1-15h-13l-9-5z" fill="#FAF4E5"/>
<path transform="translate(179,1066)" d="m0 0 5 1 10 6 8 1 5-2 8 1v6l-3 10v6l7 10v4l-5 1h-13l-10 13-3 3-4-1-2-6-3-13-11-5-5-3 2-4 5-2 2 5 11 6 3 8 2 6 5-5 6-7h13l-3-5-3-6 2-10 2-7-11 2-7-1-6-4h-4l-3 15-3 3h-4l2-6 2-15z" fill="#F887B3"/>
<path transform="translate(879,606)" d="m0 0 5 1 6 8 8 14 8 3 13 3 2 2v8l-4 5-8 7h-2l-2 4-2 3-1 22-3 4h-5l-14-10h-8l-17 7h-5l-1 3-1-3 9-4 10-4 7-3 7 1 12 9 5 1 1-2v-21l7-9 7-6h2v-2l3-2 1-7-21-5-4-4-9-17-3-3v-2l-6 4h-2l-2 5-8 9-4 5-2 1-13 1-5 1 3 8 9 13-2 11-4 9h-1l-3-14-5-18-1-2v-6l6-5 14-1 8-7 8-10z" fill="#F9A6D1"/>
<path transform="translate(164,765)" d="m0 0h1v14l-2 29h-3v-2h-2l-7-10-6-4-5-1-7 2-4 1-2-4 1-13h20l13-5h2z" fill="#F8F7F7"/>
<path transform="translate(186,540)" d="m0 0 5 1 5 6 10 4-1 5-4 6v12l-12-3-9 4h-3l-1-4v-9l-4-7 1-3 7-4z" fill="#F4DD87"/>
<path transform="translate(144,737)" d="m0 0 7 6 4 3 6 2 1 4-3 6h-2v12l-3 1-4-2h-6l-8 4h-3l-1-15-4-5v-3l8-4z" fill="#F4DD87"/>
<path transform="translate(255,1113)" d="m0 0 4 2 11 9 4 5 2 7v7l-4 8-5 4-6 7-2 1h-9l-10-3-8-5-2-5v-21l7-3 13-7zm3 8-11 5-10 1v14l-4 7 1 5 15 2 5 5 5-1 4-8 9-7v-5l-5-4-5-12z" fill="#FAE6ED"/>
<path transform="translate(667,527)" d="m0 0 4 1 5 5 7 10 7 14 4 11 1 5v13l-5-2-6-8-7-11-8-20-2-8z" fill="#EBDC74"/>
<path transform="translate(184,1077)" d="m0 0 7 1 4 2h12l-2 11 1 6 1 5-1 1-9 2-5 6-5-2-3-6-8-7 5-11z" fill="#FBE7EE"/>
<path transform="translate(358,527)" d="m0 0h4l-1 12-3 11-4 9-7 15h-2l-2 5h-2l-2 4-3 3h-2l-1-7 3-13 6-15 7-13 8-10z" fill="#EBDC74"/>
<path transform="translate(841,1068)" d="m0 0 4 1 6 10 7 3-3 5-3 4-1 4v6l-1 2-5-2-7-3-8 2-1-1v-10l-7-10 2-2 10-2 5-5z" fill="#FAF4E5"/>
<path transform="translate(598,411)" d="m0 0 5 1 8 7 3 3 2 1 3 5 9 11 7 11-1 10-6-1-7-6-14-18-9-18z" fill="#EBDC74"/>
<path transform="translate(428,411)" d="m0 0 3 1-1 6-2 7-3 5-9 13-9 11-8 6-3 1-2-7 1-6 6-10 3-3 9-11 6-5 5-5z" fill="#EBDC74"/>
<path transform="translate(673,626)" d="m0 0 2 1 3 10 2 4 2 8 3 7 3 9 2 9 3 9 5 21 3 15 4 26 1 1 2 16 1 2 1 16 1 9 1 26v10l-1 17-3 17-2 9-5 12-6 12-12 12-13 10-11 10-10 7-2-1 4-4 9-7 20-16 4-2 1-3 8-7 3-5 5-13 3-8 2-9 1-2 1-17 1-2v-37l-1-6-2-27-3-17-2-12-2-13-2-7-3-16-4-12-1-9-5-16-5-15-4-13z" fill="#EBBA88"/>
<path transform="translate(287,436)" d="m0 0h2l-2 4-13 18-9 13-2-4-8-5-16-1-8-5-7-6-9-4h-7l-5 4h-2l-1 4-6 12-7 8-10 6-3 5 1 8 6 8 6 7 3 6v16l-2 3h-2l-1-3v-17l-3-5-9-9-3-6v-9l7-8 3-1v-2l8-4 4-5 4-12 5-6 6-3 9-1 10 5 6 5 5 5 18 1 5 2 5 4h2l8-11 10-14z" fill="#F9EFF3"/>
<path transform="translate(189,1023)" d="m0 0 2 1 6 12 7 12 8 11 7 9-1 2-3-4-19-1-14-5-5 1v2l-5 5-7 16-4 6-1 5v7l4 5 6 4 4 5 4 11 5 3h10l4-2 2-4 6-5 12-2 1 3-10 2-11 9-5 3-8 1-6-3-6-9-4-8-9-8-2-3-1-12 5-10 3-3 3-12 5-7 9-3 8 1 9 3h7l6 1-11-16-11-20z" fill="#F9EFF3"/>
<path transform="translate(474,296)" d="m0 0h82v5l-6 2-26 2h-18l-21-1-11-2-2-4z" fill="#EBDC74"/>
<path transform="translate(855,989)" d="m0 0 5 1 10 5 8 6 7 1 12-1 4 2 1 3-5 17 1 6 8 14 2 7-3 5h-30l-11 12-4 2-4-2-3-7-3-11-5-5-10-6-4-1v-2l6 1 13 7 3 4 4 15 1 4 4-1 5-5 7-9h13l4 1h13l1-1v-5l-7-10-4-7v-8l4-11v-5h-19l-11-7-7-5-6-1-3 6-3 14-3 6-5 1 1-4 8-20 3-5z" fill="#F9A6D1"/>
<path transform="translate(210,449)" d="m0 0h5l10 9 8 8 9 1h16l5 6-2 5-10 18-3 7-3-3 1-5h2l1-5 7-11 4-6-1-3h-24l-6-4-14-14-5 1-4 6-5 12-4 8-16 6-1 5 14 11 4 4-1 25 2 4 4 1 8-6 8-7 8-5 9 2 2 1v2l2 1h-2l-1 2v-3l-10-1-11 7-9 7-3 2-6-1-3-4-1-26-5-5-12-11 1-5 6-4 10-4 3-5 7-16z" fill="#F9A6D1"/>
<path transform="translate(94,756)" d="m0 0 9 6 10 2-1 4-3 6-1 9-12 3-5 1-2-3-2-7-5-6 6-5z" fill="#FAD0DE"/>
<path transform="translate(821,594)" d="m0 0 2 3 7 17 3 9v2l9-5 9-1 7-5 7-8 6-5 3-1h10l11 6 8 14 4 3 12 4 8 7 2 5-1 9-4 7-3 3-9 11-2 8-2-3v-6l4-6 5-5h2l2-4 4-10-1-7-4-5-10-4-7-2-5-6-6-11-8-4-7-1-7 4-10 10-6 4-2 2-10 3-6 3-2 3-7-19-6-15z" fill="#F9EFF1"/>
<path transform="translate(879,618)" d="m0 0 3 1 8 14 5 4 13 4 2 1-1 4-12 9-2 3h-2v18l-3 1-11-7-10 1-9 4-4 1-1-5 3-12-1-8-7-11v-3l13-2 5-5 8-9h2zm0 7-7 4-6 7-9 3-1 5 4 9v15h2v2l7-1 3-1h8l4 2h6l2-12 2-4 4-2 4-4-1-7-10-4h-2l-2-5-4-6z" fill="#F9A6D1"/>
<path transform="translate(796,425)" d="m0 0h1l1 11 5 8-2 4-8 4-3 4-4-1-4-4-9-3 1-5 3-4v-7l3-2 6 1 8-4h2z" fill="#FAD1DE"/>
<path transform="translate(729,869)" d="m0 0 2 3h11l-2 4-3 5-2 3h-3l-2 4-10 12-2 1h-13l-6 2v-3l8-7 8-8 7-8z" fill="#EBDC74"/>
<path transform="translate(213,461)" d="m0 0h3l7 8 4 3v2l23 2-2 5-7 11-2 3 1 9 2 6v4l-7-1-6-2h-6l-12 10-5 2-1-1-1-19-7-8-5-3v-2h-2v-3l11-4h2l2-4 5-12zm1 7-5 6-4 8v2l-5 2-2 1-1 5 7 8 2 4 2 10 4 2 8-5 5-2h11l1-7v-8l7-12-1-4-2-1-12-1-11-8z" fill="#F9A6D1"/>
<path transform="translate(371,1265)" d="m0 0 7 1 18 3 41 3 41 1h58l64-1 38-4 16-3h5l-3 2-19 4-16 1-4 1-33 2-63 1h-57l-38-2-21-2-25-3-9-3z" fill="#FAF4E5"/>
<path transform="translate(104,911)" d="m0 0h3l4 9 7 6-2 3-8 3-3 8h-3l-4-4-11-1-1-2 4-7-1-9 2-1 7-1 5-3z" fill="#FAF4E5"/>
<path transform="translate(903,1275)" d="m0 0h8l1 1v19l-2 2-9 1h-13l-3-3h10l-1-3-5-1v2l-10 4h-9l-1-2 9-2 2-3v-8l5 2 1-1h7 1v-2l6 1 1 3-1 9h2v-17z" fill="#FAE7E9"/>
<path transform="translate(90,744)" d="m0 0h6l11 8 12 3 4 4 1 4-6 10-1 8 2 6v7l-4 1-10-3-5 1-12 9h-6l-1-4-1-17-10-9-1-2 4-6 5-4h2l2-6 5-8zm1 2-5 10-3 7-2 2-9 3-1 4 6 2 2 4 3 2 1 20 3 1 7-4 3-3v-2l5-2h6l6 3 5-1-3-10v-8l7-10v-4l-4-2-13-1-7-7h-2v-2z" fill="#F9A6D1"/>
<path transform="translate(759,422)" d="m0 0 2 1 2 6-1 8-4 7-4 6v2l4 6-1 2-4-5-8-11-6-8-4-4-3-5 4 1 1-1h14l7-4z" fill="#F8F6F3"/>
<path transform="translate(739,755)" d="m0 0 3 1 4 7 4 18-1 20-2 4h-2l-7-14-1-3-1-22 2-10z" fill="#EBDC74"/>
<path transform="translate(858,981)" d="m0 0 8 3 12 6 2 2 4 1 14 1 6 3 4 4 1 3v8l-1 2v16l7 14v9l-6 8-9 2-21 1-9 12-3-1 1-4 7-8 6-3h16l9-2 4-5 1-6-2-9-5-9-1-11 2-5v-7l-1-5-3-1v-2l-4-1-16-1-6-3-5-4-9-4-4-1z" fill="#F9EEF2"/>
<path transform="translate(289,754)" d="m0 0 3 4v27l-4 14-5 6-3-4-1-14 2-17 4-11z" fill="#EBDC74"/>
<path transform="translate(850,690)" d="m0 0 1 3h2l4 23 4 27 1 14 2 9v19l2 11 3 54v55l-3 38-5 25-2 6-1 8-3 3 1-7 5-22 4-30 2-37v-30l-3-54-2-19-3-38-6-41-3-13z" fill="#FAF4E5"/>
<path transform="translate(110,816)" d="m0 0h2l2 9v8l-1 9v4l7 1 10-2h7l10 6 3-1 3-14 7-7h1v14h-2l-3 6-5 5-2 1h-8l-6-2h-11l-9-2-4-3-2-8 1-15-1-8z" fill="#FBE6ED"/>
<path transform="translate(879,625)" d="m0 0 4 1 6 9v2l12 4 1 7-6 6h-2l-3 9-1 7h-6l-4-2h-8l-6 2h-4v-2h-2v-15l-4-9 1-5 9-3 7-8zm-2 6-11 7-5 5v8l3 12 2 2h18l3-2 3-5 6-9-1-5-5-5-4-5-5-3z" fill="#FAD1DE"/>
<path transform="translate(914,694)" d="m0 0h3l4 10 4 2-1 4-7 5-2 8-5-5-1-2h-8l-5-1 4-8-1-6-2-4h11z" fill="#F887B3"/>
<path transform="translate(207,450)" d="m0 0 2 1-4 5-8 19-5 4-12 5-2 2 1 5 10 9 6 6 1 26 4 4 5-1 9-6 9-7 4-2 8 1 2 1v5l-4-2-9 1-11 9-9 4-6 1-4-3-2-12-1-15-3-6-4-5-6-5-2-3v-6l2-3 11-6 4-4 8-14 3-5z" fill="#FAD2DE"/>
<path transform="translate(253,738)" d="m0 0 1 4-1 36-5-5-9-14-6-12v-3l13-2 4-2h3z" fill="#F888B4"/>
<path transform="translate(214,468)" d="m0 0 6 1 9 7 12 1 3 3-2 6-5 8v13l-1 2h-11l-5 2-8 5-4-2-3-12-4-6-4-4 1-5 5-3h2l2-5 4-8zm2 5-5 4-4 5-4 6 1 8 4 9h2l1 4 6 1 14-5 2-2 4-14v-6l-6-4-5-2-4-3z" fill="#FAD4DE"/>
<path transform="translate(884,740)" d="m0 0 6 3h11l1 2-2 6 1 7 1 3-8 1-4 4-1 3h-3l-4-9-6-3 1-4 3-3 3-9z" fill="#FAF4E5"/>
<path transform="translate(216,473)" d="m0 0 8 2 3 3 8 3 2 2-1 10-3 10-4 3-12 4-6-1-1-4h-2l-5-12 1-7 4-6 5-5zm0 5-4 4-3 5v11l4 6 2 1h6l8-4 3-6v-10l-8-6-2-1z" fill="#FBE7EE"/>
<path transform="translate(491,319)" d="m0 0h47l-5 5-9 6-10 6-8-5v-2l-6-2-2-1v-2l-5-2-2-1z" fill="#EBDC74"/>
<path transform="translate(160,1095)" d="m0 0 2 4 15 8 3 8 3 12h8l12-12 17-2-2 4-13 3-7 6-5 5h-10l-5-3-3-5-3-9-6-5-5-4-2-3v-6z" fill="#FAE6ED"/>
<path transform="translate(877,631)" d="m0 0 6 1 5 5 6 5 2 3-1 5-6 9-3 5-2 1h-18l-3-4-2-10v-8l5-5zm-3 5-8 7v8l1 7 3 3h14l6-9 1-6-7-8-4-2z" fill="#FBE7EE"/>
<path transform="translate(355,938)" d="m0 0h10l4 4-1 5-7 2 2 5h2v2l4 2 9 8-1 2-6-4-11-10v-2h-4l-2 6-2 3-5-1-1-2v-13l2-5z" fill="#E0C466"/>
<path transform="translate(140,797)" d="m0 0 4 1 5 7 4 8 10 4v2l-6-1-6-3-5-8-3-7-5 1-7 8-5 3-10 1 1 5 4 8-2 9-3 9v2l16-4 7 1 8 6h2l2-15 9-8h3l-1 4-4 2-4 4-3 14-4 2-10-6h-7l-10 2-5-1-1-1 1-9 2-8-1-6-4-8 2-4 12-3 9-7z" fill="#F9A6D1"/>
<path transform="translate(873,611)" d="m0 0v3l-11 14-4 3-13 1-5 1 3 8 9 13-2 11-4 9h-1l-3-14-5-18-1-2v-6l6-5 14-1 8-7 7-8z" fill="#F9A6D1"/>
<path transform="translate(738,374)" d="m0 0h6l4 4 4 8 12 8 1 1-1 7-9 9-2 4-2 9-5 1-9-4h-9l-1 2-4-2 8-4h7l6 4 6 2v-10l7-8 6-7 1-2-5-2-10-5-3-7-2-6-5 1-7 9-7 2h-11l8 12-1 7-2 5h-3l2-12-6-10 2-4 13-2 7-5 1-2h2z" fill="#F9A6D1"/>
<path transform="translate(796,417)" d="m0 0h5l3 3 1 14 9 10 1 5-5 4-12 5-2 2-3 7-2 2-4-1-8-9v-2h-16l-4-3 1-6 10-12-3-11 1-5h7l10 3zm2 1-14 7-14-4-1 4 3 11-6 8-2 4h-2l-2 5 2 2 17 1 5 5 4 6 4-1 3-11 7-1 10-4 1-5-4-4h-2l-2-4-2-3-1-13-2-3z" fill="#F9A6D1"/>
<path transform="translate(810,414)" d="m0 0 2 4 1 11 6 8 2 5v11l-6 7-8 5h-2v2h-2v2l-8 5h-12l-5-4-13-4-4-2-1-3 7 1 9 3 5 3 4 3 8-1 6-4 7-6 6-3 3-4h2v-10l-4-9-3-5-1-3v-11z" fill="#F8EFF3"/>
<path transform="translate(732,1274)" d="m0 0 3 1v18h3l-1-2v-10l4 1v11h4l2-11h3l2 1 4-1 5 2-1 4-1-2h-2v10l-2 2-10-2v2h-7l-3-2-5 1-1-2h2v-19z" fill="#FAE3E7"/>
<path transform="translate(755,646)" d="m0 0 2 2 4 14 4 20 3 17 4 20 1 12 1 3 2 29v13h3l2-4 12-21 6-12 7-17 2-1-1 5-6 15-7 12-6 12-5 9-4 4-5 2-2-42-1-3-2-18-4-20-4-23-3-12-3-10z" fill="#EBB989"/>
<path transform="translate(790,1281)" d="m0 0 1 3-3 2-1 11-7-1-1 2h-18l-1-3h3l-1-13 5 3v-2h9 4l2 5v7h2v-10l1-2z" fill="#F6CDD5"/>
<path transform="translate(184,1077)" d="m0 0 7 1 4 2h12l-2 11 1 6 1 5-1 1-9 2-5 6-5-2-3-6-8-7 5-11zm9 5-7 2-4 6v6l4 6 2 2h7l3-1 4-4v-13z" fill="#FAD2DE"/>
<path transform="translate(228,1128)" d="m0 0 2 1 1 11v10l2 5 12 6 5 1h9l6-5 5-5 4-6 1-3v-7l-1-1v-5h3l2 12-2 9-5 6-5 4-5 5-8 1-18-5-4-3v-2h-2l-2-5-1-10z" fill="#F8EFF3"/>
<path transform="translate(708,780)" d="m0 0h2l1 9 1 26v10l-1 17-3 17-2 9-5 12-6 12-12 12-13 10-11 10-10 7-2-1 4-4 9-7 20-16 4-2 1-3 8-7 3-5 5-13 3-8 2-9 1-2 1-17 1-2v-37l-1-6z" fill="#EBB989"/>
<path transform="translate(796,423)" d="m0 0h3l1 13 4 5 4 4v2l-14 7-4 7-4-2-5-6-2-1-11-1 1-6 5-5v-13l7 1 4 1 6-3zm0 2v2l-12 4-5-1-2 2v7l-4 6v3l10 4 4 4 4-1 5-5 6-3 1-3-5-8-1-11z" fill="#F9A6D1"/>
<path transform="translate(831,1037)" d="m0 0 5 1 11 6 4 5 5 16-1 2-5-6-6-4v-2h-3l-7-8-5-3-2 4-4 4 2-5z" fill="#FBE7EE"/>
<path transform="translate(93,752)" d="m0 0 4 2 6 5v2h9l5 1-1 5-3 4-2 4 1 13-12-2-5 2v2l-4 3h-3l-1-4v-8l-6-7-3-2v-3l8-3zm1 4-7 11-5 5 6 7 2 7 5 1 3-2 10-2 1-9 4-7v-3l-12-3-6-5z" fill="#F9A6D1"/>
<path transform="translate(193,464)" d="m0 0v3l-6 7-10 6-3 5 1 8 6 8 6 7 3 6v16l-2 3h-2l-1-3v-17l-3-5-9-9-3-6v-9l7-8 3-1v-2l8-4z" fill="#F9EFF3"/>
<path transform="translate(96,763)" d="m0 0 7 1 3 3 1 5-3 8-4 2h-6l-4-5-1-2 1-9z" fill="#FBE7EE"/>
<path transform="translate(878,605)" d="m0 0h6l5 4 5 9 6 8 19 8-4 1-16-4-4-5-9-16-3-3-6 1-7 6-8 10-6 5-16 1 2-3 12-3 5-3 15-15z" fill="#FAD2DE"/>
<path transform="translate(737,368)" d="m0 0h11l5 3 6 8v2l3 1 4 5 3 1v2l3 1v3l-4-2-10-9-10-10-7-3-8 3-9 6-11 4-3 7v10h-3l-2-1-1-5 4-9h2l2-5 12-5 7-5z" fill="#F8EFF3"/>
<path transform="translate(258,1121)" d="m0 0 4 2 5 12 5 4v5l-10 8-4 8h-4l-5-5-15-2-1-5 4-7v-14l13-2zm-1 2-8 5-11 1 2 7v5l-5 8 1 2 13 1 5 5 1 2h2l4-10 10-6-1-4-5-3-3-7-2-6z" fill="#F9A6D1"/>
<path transform="translate(522,254)" d="m0 0h3l1 4h2l10 14v3l-10 3h-6l-1-2v-16z" fill="#EBDC74"/>
<path transform="translate(784,434)" d="m0 0h10l3 5v6l-4 4-9 1v-2l-4-1-2-4 1-4z" fill="#FAE7EE"/>
<path transform="translate(504,254)" d="m0 0h3v24h-7l-9-3 2-5 6-9z" fill="#EBDC74"/>
<path transform="translate(873,642)" d="m0 0h10l2 2v9l-1 2h-2l-1 3h-9l-3-4v-9z" fill="#F8F7F7"/>
<path transform="translate(818,1274)" d="m0 0 3 1v19h2v-10l7-3-1 4h-3v12l-10 1-7-2 2-1-1-14 6 2-1 12h2l-1-15v-3z" fill="#F8DFDB"/>
<path transform="translate(880,1282)" d="m0 0 5 2 1-1h7l5 1v12l-1 1h-10l-2-2h10l-1-3-5-1v2l-10 4h-9l-1-2 9-2 2-3z" fill="#F8D1DA"/>
<path transform="translate(769,402)" d="m0 0 3 1 3 3 18 5-3 2-7 2-15 2-5 3-2-4z" fill="#F8EFF3"/>
<path transform="translate(216,478)" d="m0 0h6l6 4 4 3v10l-4 7-7 3h-6l-5-5-1-2v-11l5-8zm1 4-5 5-1 8 3 6h8l6-3 1-7-2-6-5-3z" fill="#F9EFF3"/>
<path transform="translate(222,1074)" d="m0 0 5 4 2 5 7 8 2 5-13 3-3-5-1-8z" fill="#F8F7F7"/>
<path transform="translate(792,593)" d="m0 0 3 4 5 18 5 16 1 1 2 10 5 21 3 18v11l-2 18-2 3-2 6-2 2 2-9 2-4 1-22-1-16-5-23-2-4-2-11-3-6-2-9-6-20z" fill="#EBB988"/>
<path transform="translate(759,422)" d="m0 0 2 1 2 6-1 8-4 7-4 6h-3v-2h2l1-6 4-8v-3l-5 1h-16l-1-4 1-1h14l7-4z" fill="#F8EFF3"/>
<path transform="translate(216,1078)" d="m0 0h1l1 16 3 5 3 2-1 7-2 5-18 3-12 12-2-1 10-12 3-4 18-1-1-7-6-9 1-8z" fill="#FAD4DE"/>
<path transform="translate(90,744)" d="m0 0h6l11 8 12 3-3 2h-9l-6-5-5-5-5-2-1 4-5 12-4 5-9 3-2 3-1-2 4-6 5-4h2l2-6 5-8z" fill="#FAD2DE"/>
<path transform="translate(912,693)" d="m0 0h6l5 10 4 4-1 4-7 5-3 8-4-1-4-4-12-2-2-1 4-12-2-5 1-4h10zm2 1-6 3h-11l3 6-1 6-3 6 8 1h5l5 7 2-4 2-5 7-5v-3l-5-3-3-9z" fill="#F9A6D1"/>
<path transform="translate(853,1281)" d="m0 0 3 1 2 5-1 7-4 3h-7l-3-4-1 2 1-4 1-7 1-1h7 1z" fill="#F9EEEF"/>
<path transform="translate(189,1023)" d="m0 0 2 1 6 12 7 12 8 11 7 9-1 2-3-4-19-1-14-5-2-1 2-2 9 2 7 2h7l6 1-11-16-11-20z" fill="#F9EFF3"/>
<path transform="translate(261,477)" d="m0 0 1 3-7 11-3 12 3 9v10l-3 5h-15l1-4h13l1-4-4-14 1-6 8-16z" fill="#EBB989"/>
<path transform="translate(160,829)" d="m0 0 1 4h-2l-1 4-5 12-3 4-8-1-4-2h-17l-5-1 4-2 10-2h7l10 6 3-1 3-14z" fill="#FAD1DE"/>
<path transform="translate(732,1274)" d="m0 0 3 1v18h3l-1-2v-10l4 1v11l1 2-3 1 6 1v1h-7l-3-2-5 1-1-2h2v-19z" fill="#FAE5E9"/>
<path transform="translate(804,1282)" d="m0 0 5 2-3 1v10l-4 2-3-1-2 2-5-1v-2l2-1 1-10 1-1z" fill="#F9E9ED"/>
<path transform="translate(229,1101)" d="m0 0 6 1 2 2-6 1-2 7-3 3 5 1 2 4 4-2 6-1-1-7v-6h3v8l3 5v2h-10l-1 5-4 2-3-6-7-3 1-4 3-4z" fill="#F4DD87"/>
<path transform="translate(765,395)" d="m0 0h1l-1 9-8 11-6 11h-9l-7-2h-3v2l-4-2v-3l2-1h7l9 4h4l3-11 7-8 4-5z" fill="#FBCDDE"/>
<path transform="translate(836,637)" d="m0 0h2l9 14 2 3-1 10-1 3-3-1-7-24z" fill="#FAD9E0"/>
<path transform="translate(852,988)" d="m0 0 1 3-10 24-2 4-10 6-2 2 1 6 1 1-1 7-2 1v-6l-2-4v-7l7-6 5-4 4-4 5-12 2-6z" fill="#EBB988"/>
<path transform="translate(334,1165)" d="m0 0 5 1 14 6 6 2-1 4-4 11-1 3v9l3 10-7 9-9 11v-3l12-15v-7l-2-6v-7l4-12 1-5-8-4-12-5z" fill="#FAF4E5"/>
<path transform="translate(902 1e3)" d="m0 0h1l-2 22 6 12 2 6-1 9h-3l2-5-2-6-8-14-1-6 5-17z" fill="#FAD1DE"/>
<path transform="translate(875,1054)" d="m0 0h14l16 1-3 2h-19l-10 5-7 6-5 5-3-1v-3h-2l1-2 5 1 9-9z" fill="#FAD3DE"/>
<path transform="translate(879,625)" d="m0 0 4 1v2h-6l-12 12h-2l-1 3v22l1 3h6l-3 2h-4v-2h-2v-15l-4-9 1-5 9-3 7-8z" fill="#FAD1DE"/>
<path transform="translate(214,448)" d="m0 0 5 2 6 4 8 8 10 2 15 1 4 4-1 2-3-3h-22l-5-3-13-13z" fill="#FAD1DE"/>
<path transform="translate(632,718)" d="m0 0h5l2 3-1 8-5 6-4 1-1-1v-6l2-4z" fill="#FAD5DE"/>
<path transform="translate(270,1123)" d="m0 0 8 6 2 1v2l5 2 8 6 9 6 13 8 11 6 8 4-2 1-12-5-11-7-9-5-10-7-11-8-6-4v-2l-3-1z" fill="#FAF4E5"/>
<path transform="translate(831,1037)" d="m0 0 5 1 11 6 4 5 5 16-1 2-5-6-3-3 1-4-4-7-8-5-5-2z" fill="#FAD3DE"/>
<path transform="translate(227,524)" d="m0 0h6l2 4h-8l-6 5-8 5-4 2-1 3-9-1 1-3 12-4 9-8z" fill="#FBE7EE"/>
<path transform="translate(855,988)" d="m0 0h6l16 8 3 2 16 1 4 3-19 1-9-5-9-6-8-3z" fill="#FAD1DE"/>
<path transform="translate(774,486)" d="m0 0 3 2 6 13 4 10 8 16 11 23 2 8-3-3-4-9-7-16-7-14-11-24-2-3z" fill="#FAF4E5"/>
<path transform="translate(877,627)" d="m0 0 7 1 5 7v2l6 2 5 5-1 5-3 3h-2l1-7-9-9v-2l-5-2-6 1-4 3-2-1z" fill="#FAD3DE"/>
<path transform="translate(509,17)" d="m0 0h11l7 3v2l-5-2-3-1h-9l-8 4-4 8v7l4 10 4 3-2 4-12 12v-3l8-8 1-6-4-6-1-4v-11l3-6 6-5z" fill="#FAF4E5"/>
<path transform="translate(879,1281)" d="m0 0 2 1v8l-5 5h-6v-12l4-1 5 2z" fill="#F9E9E7"/>
<path transform="translate(214,468)" d="m0 0 6 1 4 4-6 1-5 2-3 4h-2l-2 5-5 4 1 7-5-4 1-5 5-3h2l2-5 4-8z" fill="#FAD1DE"/>
<path transform="translate(119,756)" d="m0 0h6l2 4v5l-4 4-2 6-1 19h-1l-2-10-1-8 6-11 1-3-1-3z" fill="#FAD1DE"/>
<path transform="translate(790,1281)" d="m0 0 1 3-3 2-1 11-7-1-1 1h-10l-1-2h10v-10l3 1 1 2v7h2v-10l1-2z" fill="#F4A2B0"/>
<path transform="translate(698,676)" d="m0 0 3 4 2 11 4 1 1 11-1 3 2 7v6l-2-2-3-12-2-9-2-8-2-4z" fill="#F3DC86"/>
<path transform="translate(189,1087)" d="m0 0 7 1 2 2-1 8-5 1-4-3-1-7z" fill="#F9EFF3"/>
<path transform="translate(604,986)" d="m0 0 7 1 4 5-4 4-7-1-3-3 1-5z" fill="#EBDC74"/>
<path transform="translate(420,986)" d="m0 0h5l2 2v6l-4 2-6-1-2-2 1-5z" fill="#EBDC74"/>
<path transform="translate(762,1282)" d="m0 0 4 3v8l10-3-1 3 2 2-8 1 10 1v1h-18l-1-3h3z" fill="#F9EAE7"/>
<path transform="translate(477,259)" d="m0 0v3l-4 5-7 8-3 5h-2l-2 4-14 16-6 5 2-4 7-7 10-13h2l2-4 7-9h2l2-5z" fill="#FAF4E5"/>
<path transform="translate(703,1160)" d="m0 0 2 1-19 10-11 4h-2l4 11v6l-2-3-4-11-1-3 13-6 8-4 10-4z" fill="#FAF4E5"/>
<path transform="translate(162,1100)" d="m0 0 6 2 9 5 3 8 3 12-4-4-5-12-3-3v-2l-5-2z" fill="#FAD2DE"/>
<path transform="translate(227,527)" d="m0 0h7l-1 4-3 1-5 1-5 3-3 3-6 3-1 2h-2l1-4 8-6 6-2 2-4z" fill="#F9EEF2"/>
<path transform="translate(921,637)" d="m0 0h1v9l-4 6-6 6-5 3-3 6-1 17h-1v-20l5-7 11-9 2-3z" fill="#FBCFDE"/>
<path transform="translate(571,168)" d="m0 0h1v7l-6 18-8 14-4 5h-2l-2 4-4 2 6-8 5-6 6-10 5-13z" fill="#FAF4E5"/>
<path transform="translate(111,813)" d="m0 0 3 4 4 8-1 9-3 12-2-4 1-17z" fill="#FAD2DE"/>
<path transform="translate(143,797)" d="m0 0 4 2 11 12 1 3h3l1-2 1 4-3 1-9-4-7-13z" fill="#FAD0DE"/>
<path transform="translate(413,326)" d="m0 0 2 1-10 8-16 12-13 10-5 4-2-1 11-9 18-14z" fill="#FAF4E5"/>
<path transform="translate(222,1074)" d="m0 0 5 4v2h-2l1 9 1 10-4-2-2-7z" fill="#F9EFF1"/>
<path transform="translate(189,1023)" d="m0 0 2 1 6 12 7 12 8 11 7 9-1 2-10-12-10-15-5-10-4-7z" fill="#FAF4E5"/>
<path transform="translate(761,456)" d="m0 0 18 1 8 10 4 1 3-2-2 4h-5l-8-7-8-3-9-2z" fill="#FAD2DE"/>
<path transform="translate(313,908)" d="m0 0 4 2 2 4v7l-2 4h-3l-2-12z" fill="#EBDC74"/>
<path transform="translate(796,416)" d="m0 0h6l4 4 2 12 6 10 2 3-1 4-3-6-8-9-1-14-2-2-5-1z" fill="#FAD1DE"/>
<path transform="translate(527,22)" d="m0 0 3 1 3 5v14l-6 9 1 4 10 10-1 2-14-14 1-3 4-4 3-7v-9z" fill="#FAF4E5"/>
<path transform="translate(189,501)" d="m0 0 4 2 2 3 1 26 4 4 4 1v2l-6 1-4-3-1-7v-22z" fill="#FBCFDE"/>
<path transform="translate(841,657)" d="m0 0 2 3 2 9v14l4 5-1 2-6-5-1-2v-10l1-8z" fill="#EBB988"/>
<path transform="translate(714,909)" d="m0 0h2v14l-4 1-3-7 2-5z" fill="#EBDC74"/>
<path transform="translate(673,626)" d="m0 0 2 1 3 10 2 4 2 8 3 7 3 9v7l-2-2-5-17-6-18z" fill="#EBB989"/>
<path transform="translate(767,425)" d="m0 0 2 4 2 7-10 12-1 6 1 2-3-1 1-9 6-9z" fill="#FAD2DE"/>
<path transform="translate(737,373)" d="m0 0h7v1l-6 1-1 2h-2l-2 4-6 4-13 1 2-2 14-5 4-2v-2z" fill="#FAD1DE"/>
<path transform="translate(250,1119)" d="m0 0 7 1 3 1-13 6h-10l5-4z" fill="#FAD2DE"/>
<path transform="translate(175,1067)" d="m0 0 1 2-3 18-10 8v-3l6-9 5-15z" fill="#FAD2DE"/>
<path transform="translate(71,773)" d="m0 0 8 6 2 2 1 19-2-1-3-13-3-6-3-5z" fill="#FAD3DE"/>
<path transform="translate(137,797)" d="m0 0 3 1-12 10-4 2h-8l3-3 9-4 5-4z" fill="#FBCFDE"/>
<path transform="translate(709,404)" d="m0 0 7 6 1 4v6l1 1 9 1 2 3h-10l-5-3-1-12-4-4z" fill="#EBB988"/>
<path transform="translate(184,498)" d="m0 0 4 1 6 9v22l-2-2-1-18-3-6-4-5z" fill="#FAD5DE"/>
<path transform="translate(792,1090)" d="m0 0v3l-12 13-5 5-11 10-4 2 1-3 8-7 6-5 4-5 10-10z" fill="#FAF4E5"/>
<path transform="translate(820,1055)" d="m0 0 1 2-5 9-4 3-3 5-3 4h-2l-2 4-8 8v-3l8-8 9-12z" fill="#FAF4E5"/>
<path transform="translate(746,375)" d="m0 0h3l5 8v2l4 2 3 2v2l4 2-1 2-12-8-4-6z" fill="#FAD2DE"/>
<path transform="translate(101,791)" d="m0 0 8 1 6 2v1l-13 1-5 2-5 3-4 1 4-4z" fill="#FAD2DE"/>
<path transform="translate(451,996)" d="m0 0 4 2-6 7-3 2h-3l2-8z" fill="#EBDC74"/>
<path transform="translate(576,996)" d="m0 0 5 1 4 5 1 4-2 1-6-3-4-5v-2z" fill="#EBDC74"/>
<path transform="translate(287,436)" d="m0 0h2l-2 4-13 18-9 13-1-3 10-14 12-16z" fill="#FAF4E5"/>
<path transform="translate(712,390)" d="m0 0 4 5 3 5-1 9h-4l-2-4h3l-3-12z" fill="#FAD3DE"/>
<path transform="translate(909,1275)" d="m0 0 3 1v19l-4 2-1-2h2z" fill="#F0A4A5"/>
<path transform="translate(903,1275)" d="m0 0h2v21l-3 1-2-2h2v-18z" fill="#F694B7"/>
<path transform="translate(880,1055)" d="m0 0h25l-3 2h-19l-10 5h-3l5-5z" fill="#FAD5DE"/>
<path transform="translate(94,744)" d="m0 0 5 2 8 6 12 3-3 2h-9l-6-5-5-5z" fill="#FAD3DE"/>
<path transform="translate(732,1275)" d="m0 0 2 2v18l-1 2-4-1 2-1v-19z" fill="#F0A4A4"/>
<path transform="translate(830,1039)" d="m0 0 2 4 9 5 2 4v3h-2l-7-8-5-3-2 4-4 4 2-5z" fill="#F9F0ED"/>
<path transform="translate(730,420)" d="m0 0h7l10 5v1l-8-1-7-1v2l-4-2v-3z" fill="#FAD4DE"/>
<path transform="translate(756,1125)" d="m0 0 2 1-11 9-13 9-8 5h-2v-2l9-5 10-7z" fill="#FAF4E5"/>
<path transform="translate(617,995)" d="m0 0 2 1v9l-3 6h-3l1-11z" fill="#EBDC74"/>
<path transform="translate(90,746)" d="m0 0v3l-5 12-4 5-9 3-2 3-1-2 4-4 8-4 4-9 4-6z" fill="#F9A6D1"/>
<path transform="translate(186,1066)" d="m0 0 7 1 1 1 12 1h7v1l-12 3h-5l-10-6z" fill="#FAD2DE"/>
<path transform="translate(666,940)" d="m0 0h6l3 2v2l-5 3h-5l-3-4z" fill="#EBDC74"/>
<path transform="translate(478,83)" d="m0 0v3l-10 19-5 13-2 4 1-8 3-7 2-6 9-16z" fill="#FAF4E5"/>
<path transform="translate(810,1283)" d="m0 0h1v12l-1 1 3 2-5-1h-2l-5 1 1-2 3-1 1-10z" fill="#F9ECEF"/>
<path transform="translate(236,1127)" d="m0 0h1l1 5v9l-4 7-1-3 1-17z" fill="#FAD1DE"/>
<path transform="translate(357,940)" d="m0 0h7l2 2-1 4-4 1-4-2v-2l-4 1v-2z" fill="#EBDC74"/>
<path transform="translate(411,996)" d="m0 0 3 1 2 9-1 5-4-4-1-3v-7z" fill="#EBDC74"/>
<path transform="translate(231,790)" d="m0 0 7 1 4 2 1 5-6-1-6-4z" fill="#EBDC74"/>
<path transform="translate(792,417)" d="m0 0 4 1-12 6-9-3-7-1v-1h20z" fill="#FAD1DE"/>
<path transform="translate(234,1153)" d="m0 0h9l7 2 4 3v2l-16-4z" fill="#FAD1DE"/>
<path transform="translate(630,967)" d="m0 0 10 1 2 3-4 2h-6l-3-3z" fill="#EBDC74"/>
<path transform="translate(54,665)" d="m0 0 3 1-4 5 2 4 1 4-4-1-4-4 1-4z" fill="#F887B3"/>
<path transform="translate(880,1282)" d="m0 0 3 2v9l-4 4h-9l-1-2 9-2 2-3z" fill="#F29BA5"/>
<path transform="translate(855,1283)" d="m0 0 3 4-1 7-4 3h-7l-2-3h6l4-4z" fill="#F19FA3"/>
<path transform="translate(866,1281)" d="m0 0 2 1-1 3-3 1-1 9-4 2-1-2h2v-11z" fill="#F693B5"/>
<path transform="translate(829,1281)" d="m0 0 1 3-4 1v12h-5v-2h2v-11z" fill="#F29AA7"/>
<path transform="translate(283,863)" d="m0 0 10 3 3 3v2h-6l-8-6z" fill="#EBDC74"/>
<path transform="translate(791,790)" d="m0 0h7l-1 4-8 4-4-1z" fill="#EBDC74"/>
<path transform="translate(808,558)" d="m0 0 3 3 7 20 3 8-1 4-8-21-4-10z" fill="#FAF4E5"/>
<path transform="translate(814,449)" d="m0 0v3l-14 8-5 6-1-2 2-5 4-3 12-5z" fill="#FAD2DE"/>
<path transform="translate(164,799)" d="m0 0h1l1 27-2 5-1 6h-1v-7l1-4z" fill="#ECBE88"/>
<path transform="translate(862,654)" d="m0 0h1l2 9 1 1 11 1-4 2-1 1h-9l-2-5z" fill="#FAD5DE"/>
<path transform="translate(803,791)" d="m0 0 2 1 2 9-2 4h-2l-2-5 1-7z" fill="#EBDC74"/>
<path transform="translate(748,1281)" d="m0 0h1v13l-4 3h-6l-2-2 8-2 2-11z" fill="#F396A7"/>
<path transform="translate(271,1144)" d="m0 0 1 2-4 6-5 2-2 4-2 1 2-7 7-6z" fill="#FAD1DE"/>
<path transform="translate(203,1092)" d="m0 0 2 3 2 4-1 4-8 1 1-4 3-1z" fill="#FBCFDE"/>
<path transform="translate(644,974)" d="m0 0 4 2-1 9-3 4-1-2v-11z" fill="#EBDC74"/>
<path transform="translate(119,756)" d="m0 0h6l2 4v5l-6 5-1-2 3-6-1-3z" fill="#FAD4DE"/>
<path transform="translate(770,405)" d="m0 0 5 1 10 3v1l-13 1-2-1-1-4z" fill="#F8F7F7"/>
<path transform="translate(754,1282)" d="m0 0 5 1v2h-3v10l-4 2-1-2h2v-12z" fill="#F595B0"/>
<path transform="translate(382,974)" d="m0 0h3l1 2v11l-2 2-2-5-1-8z" fill="#EBDC74"/>
<path transform="translate(804,1282)" d="m0 0 5 2-3 1v10l-4 2-1-2h2v-12z" fill="#F1A0A7"/>
<path transform="translate(895,1283)" d="m0 0 3 1v12l-1 1h-10l-2-2 10-1z" fill="#F298A5"/>
<path transform="translate(745,863)" d="m0 0h2l-2 4-8 4h-3l2-5z" fill="#EBDC74"/>
<path transform="translate(262,1123)" d="m0 0 4 3 4 7 2 6-6-4-4-10z" fill="#FAD1DE"/>
<path transform="translate(394,967)" d="m0 0 5 1v3l-5 2-7-2 3-3z" fill="#EBDC74"/>
<path transform="translate(258,830)" d="m0 0 5 1 4 4-1 3-6-1-2-3z" fill="#EBDC74"/>
<path transform="translate(810,1281)" d="m0 0 3 1 1 4v10l-4 1-1-2h2z" fill="#F1A9AB"/>
<path transform="translate(796,1283)" d="m0 0h5l-2 3-2 10h-4l1-2 1-10z" fill="#F594B1"/>
<path transform="translate(360,953)" d="m0 0 5 1v2l4 2 9 8-1 2-6-4-11-10z" fill="#E0C466"/>
<path transform="translate(769,830)" d="m0 0h3l-2 6-3 2h-4l1-6z" fill="#EBDC74"/>
<path transform="translate(839,1281)" d="m0 0 2 1-1 3h-3l-1 11h-4l1-2 1-10z" fill="#F395A8"/>
<path transform="translate(349,946)" d="m0 0 4 1 1 5-3 5h-3v-7z" fill="#EBDC74"/>
<path transform="translate(893,640)" d="m0 0 4 1 3 3-1 5-3 3h-2l1-7z" fill="#FAD6DE"/>
<path transform="translate(758,460)" d="m0 0 5 5 10 17 1 4-3-3-11-18z" fill="#FAF4E5"/>
<path transform="translate(251,834)" d="m0 0 4 2 2 6-1 3h-3l-2-5z" fill="#EBDC74"/>
<path transform="translate(225,792)" d="m0 0 3 3-1 8h-4v-9z" fill="#EBDC74"/>
<path transform="translate(231,477)" d="m0 0h10l3 3-2 6-3 3 1-5-3-5-6-1z" fill="#FCCADF"/>
<path transform="translate(681,377)" d="m0 0 5 2 10 9 7 7-1 2-11-11-10-8z" fill="#FAF4E5"/>
<path transform="translate(318,903)" d="m0 0h7l3 2-1 3-8-1-3-3z" fill="#EBDC74"/>
<path transform="translate(630,372)" d="m0 0 6 2 11 8 7 5-3 1-16-12-5-3z" fill="#EDC188"/>
<path transform="translate(778,1285)" d="m0 0h2v11l-1 1h-10l-1-2h10z" fill="#ECA48F"/>
<path transform="translate(678,945)" d="m0 0 2 1v11h-3l-1-3v-7z" fill="#EBDC74"/>
<path transform="translate(277,868)" d="m0 0 3 1 2 9-1 3h-2l-3-12z" fill="#EBDC74"/>
<path transform="translate(776,834)" d="m0 0h2l-1 8-2 3-3-1 1-6z" fill="#EBDC74"/>
<path transform="translate(895,696)" d="m0 0 2 3 2 6-3 8-2-1z" fill="#FAD2DE"/>
<path transform="translate(305,416)" d="m0 0 2 1-9 11h-2l-2 4-5 4 2-5 4-4h2l2-4z" fill="#FAF4E5"/>
<path transform="translate(644,931)" d="m0 0 3 1-8 6-10 7-3-1 17-12z" fill="#EBB989"/>
<path transform="translate(750,868)" d="m0 0 2 2-1 9-3 2-1-7z" fill="#EBDC74"/>
<path transform="translate(694,692)" d="m0 0h1l4 15v5l-4-5-1-7-1-5z" fill="#EDC388"/>
<path transform="translate(894,1281)" d="m0 0 6 1 1 3-1 9 2 1-4 1-1-12-3-1z" fill="#FAEAEA"/>
<path transform="translate(926,709)" d="m0 0 1 3-10 12-1-2 3-7 5-4h2z" fill="#FAD2DE"/>
<path transform="translate(420,487)" d="m0 0h3l-2 5-5 8-3 1 2-6z" fill="#FAC2D9"/>
<path transform="translate(879,1285)" d="m0 0 2 4-3 5-4-1 1-7z" fill="#F8F5F5"/>
<path transform="translate(660,361)" d="m0 0 5 2 13 10 3 2v2h-2v-2l-5-2-14-11z" fill="#FAF4E5"/>
<path transform="translate(440,1012)" d="m0 0h3v8l-1 2h-3l-1-4z" fill="#EBDC74"/>
<path transform="translate(429,601)" d="m0 0 3 2v6l-4 1-1-1v-7z" fill="#FCCADF"/>
<path transform="translate(587,1011)" d="m0 0 3 2v9l-4-2v-8z" fill="#EBDC74"/>
<path transform="translate(706,903)" d="m0 0 7 1-3 3-7 1-2-1v-2z" fill="#EBDC74"/>
<path transform="translate(896,717)" d="m0 0 12 1 5 6-9-3-8-3z" fill="#FAD0DE"/>
<path transform="translate(845,1283)" d="m0 0h7v2l-4 1-1 6-3-1v-7z" fill="#F399AA"/>
<path transform="translate(474,209)" d="m0 0 7 6 11 9-2 1-11-8-5-6z" fill="#FAF4E5"/>
<path transform="translate(872,1282)" d="m0 0 5 1v2l-3 1-1 6h-2l-1-9z" fill="#F694B4"/>
<path transform="translate(235,495)" d="m0 0h1l1 12-1 2h-6l4-5z" fill="#FCCADF"/>
<path transform="translate(234,495)" d="m0 0h1v9l-4 4h-6l1-2 6-3z" fill="#FAD6DE"/>
<path transform="translate(818,1282)" d="m0 0h2v14h-4l1-2z" fill="#F58FAE"/>
<path transform="translate(918,693)" d="m0 0 5 5 3 5v2l-4-2-4-8z" fill="#FAD2DE"/>
<path transform="translate(861,654)" d="m0 0h1v11l1 3h6l-3 2h-4v-2h-2v-8z" fill="#FCCADF"/>
<path transform="translate(894,1289)" d="m0 0h1v6l-11 1v-2l5-1v-2l5 1z" fill="#F9F2EE"/>
<path transform="translate(202,1111)" d="m0 0h17v1l-15 1-7 6 2-4z" fill="#FBCCDE"/>
<path transform="translate(218,763)" d="m0 0 5 1 2 4 2 1-4 1-5-5z" fill="#EBDC74"/>
<path transform="translate(842,625)" d="m0 0m-2 1h2l-2 5-5 4v-6z" fill="#FAE4E9"/>
<path transform="translate(214,468)" d="m0 0 6 1 4 4-10-1-4 2 2-4z" fill="#FCCADF"/>
<path transform="translate(762,1282)" d="m0 0 3 2v12h-4l2-1z" fill="#F594AE"/>
<path transform="translate(875,1054)" d="m0 0h14v1l-13 2-3 1-1 3-2-1z" fill="#FCCADF"/>
<path transform="translate(96,769)" d="m0 0 5 1v5l-5-1-1-4z" fill="#F9EFF3"/>
<path transform="translate(809,762)" d="m0 0 2 2-1 3-4 3h-3l1-5z" fill="#EBDC74"/>
<path transform="translate(896,640)" d="m0 0 5 1 1 7-7 6 2-4 2-2-1-5z" fill="#FCCADF"/>
<path transform="translate(737,1281)" d="m0 0 3 1v10l-3-1z" fill="#F599B2"/>
<path transform="translate(871,1275)" d="m0 0 3 1 1 5 2 2h-7v-7z" fill="#F7C9D1"/>
<path transform="translate(131,800)" d="m0 0m-1 1m-1 1m-1 1m-1 1v3l-6 3h-5l3-3z" fill="#FAD6DE"/>
<path transform="translate(698,676)" d="m0 0 3 4 2 11-3-3-2-4z" fill="#F4DD87"/>
<path transform="translate(107,772)" d="m0 0 1 2-2 7-4 2-4-1 6-2 2-7z" fill="#FAD6DE"/>
<path transform="translate(761,406)" d="m0 0v3l-6 10-2 2 2-9z" fill="#FAD6DE"/>
<path transform="translate(207,507)" d="m0 0 3 3v2l6 1-4 3-4-2z" fill="#FCCADF"/>
<path transform="translate(796,425)" d="m0 0h1v10l-1-3h-3v-2l-3-1 6-2z" fill="#FCCADF"/>
<path transform="translate(186,1105)" d="m0 0 9 1-3 5-5-2z" fill="#FCCADF"/>
<path transform="translate(859,638)" d="m0 0 4 1-3 2-1 7-3-4 1-5z" fill="#FCCADF"/>
<path transform="translate(431,311)" d="m0 0 2 1-11 10-2-1 7-7z" fill="#FAF4E5"/>
</svg>
